M48
; DRILL file {KiCad 7.0.9} date Tue Nov 28 16:56:31 2023
; FORMAT={-:-/ absolute / inch / decimal}
; #@! TF.CreationDate,2023-11-28T16:56:31-05:00
; #@! TF.GenerationSoftware,Kicad,Pcbnew,7.0.9
; #@! TF.FileFunction,Plated,1,2,PTH
FMAT,2
INCH
; #@! TA.AperFunction,Plated,PTH,ComponentDrill
T1C0.0300
; #@! TA.AperFunction,Plated,PTH,ComponentDrill
T2C0.0315
; #@! TA.AperFunction,Plated,PTH,ComponentDrill
T3C0.0394
; #@! TA.AperFunction,Plated,PTH,ComponentDrill
T4C0.0402
%
G90
G05
T1
X7.3933Y-4.713
X7.3933Y-4.813
X7.3933Y-4.913
X7.3933Y-5.013
X7.3933Y-5.113
X7.3933Y-5.213
T2
X6.0252Y-4.863
X6.1433Y-4.863
X6.4252Y-4.863
X6.5433Y-4.863
T3
X5.6433Y-5.263
X5.7433Y-5.263
X6.2079Y-3.3457
X6.3079Y-3.3457
X6.313Y-4.463
X6.4079Y-3.3457
X6.413Y-4.463
X6.5079Y-3.3457
X6.9433Y-4.963
X7.2433Y-4.963
X8.4433Y-4.663
X8.4433Y-4.763
X8.4433Y-4.963
X8.4433Y-5.063
T4
X4.2433Y-3.463
X4.2433Y-3.563
X4.2433Y-3.663
X4.2433Y-3.763
X4.2433Y-3.863
X4.2433Y-3.963
X4.2433Y-4.063
X4.2433Y-4.163
X4.2433Y-4.263
X4.2433Y-4.363
X4.2433Y-4.463
X4.2433Y-4.563
X4.2433Y-4.663
X4.2433Y-4.763
X4.2433Y-4.863
X5.2433Y-3.463
X5.2433Y-3.563
X5.2433Y-3.663
X5.2433Y-3.763
X5.2433Y-3.863
X5.2433Y-3.963
X5.2433Y-4.063
X5.2433Y-4.163
X5.2433Y-4.263
X5.2433Y-4.363
X5.2433Y-4.463
X5.2433Y-4.563
X5.2433Y-4.663
X5.2433Y-4.763
X5.2433Y-4.863
X7.3437Y-3.463
X7.4437Y-3.463
X7.5437Y-3.463
X8.0929Y-4.2748
X8.1929Y-4.2748
X8.2929Y-4.2748
X8.3929Y-4.2748
T0
M30
