%TF.GenerationSoftware,KiCad,Pcbnew,7.0.9*%
%TF.CreationDate,2023-11-28T16:56:20-05:00*%
%TF.ProjectId,PCB taller de electronica,50434220-7461-46c6-9c65-722064652065,rev?*%
%TF.SameCoordinates,Original*%
%TF.FileFunction,Copper,L1,Top*%
%TF.FilePolarity,Positive*%
%FSLAX46Y46*%
G04 Gerber Fmt 4.6, Leading zero omitted, Abs format (unit mm)*
G04 Created by KiCad (PCBNEW 7.0.9) date 2023-11-28 16:56:20*
%MOMM*%
%LPD*%
G01*
G04 APERTURE LIST*
%TA.AperFunction,ComponentPad*%
%ADD10R,1.700000X1.700000*%
%TD*%
%TA.AperFunction,ComponentPad*%
%ADD11C,1.524000*%
%TD*%
%TA.AperFunction,ComponentPad*%
%ADD12R,1.730000X2.030000*%
%TD*%
%TA.AperFunction,ComponentPad*%
%ADD13O,1.730000X2.030000*%
%TD*%
%TA.AperFunction,ComponentPad*%
%ADD14C,1.600000*%
%TD*%
%TA.AperFunction,ComponentPad*%
%ADD15O,1.700000X1.700000*%
%TD*%
%TA.AperFunction,ComponentPad*%
%ADD16O,1.600000X2.000000*%
%TD*%
%TA.AperFunction,ComponentPad*%
%ADD17R,2.000000X2.000000*%
%TD*%
%TA.AperFunction,ComponentPad*%
%ADD18C,2.000000*%
%TD*%
G04 APERTURE END LIST*
D10*
%TO.P,LDRPin1,1,Pin_1*%
%TO.N,Net-(LDRPin1-Pin_1)*%
X176360000Y-126060000D03*
%TD*%
D11*
%TO.P,U2,1,VIN*%
%TO.N,Net-(MicroUSB1-Pin_2)*%
X187790000Y-119710000D03*
%TO.P,U2,2,GND*%
%TO.N,Net-(MicroUSB1-Pin_1)*%
X187790000Y-122250000D03*
%TO.P,U2,3,GND*%
%TO.N,GND*%
X187790000Y-124790000D03*
%TO.P,U2,4,BAT*%
%TO.N,+BATT*%
X187790000Y-127330000D03*
%TO.P,U2,5,GND*%
%TO.N,GND*%
X187790000Y-129870000D03*
%TO.P,U2,6,OUT-5V*%
%TO.N,+5V*%
X187790000Y-132410000D03*
%TD*%
D12*
%TO.P,J2,1,Pin_1*%
%TO.N,GND*%
X191610000Y-87960000D03*
D13*
%TO.P,J2,2,Pin_2*%
%TO.N,/d4*%
X189070000Y-87960000D03*
%TO.P,J2,3,Pin_3*%
%TO.N,+3.3V*%
X186530000Y-87960000D03*
%TD*%
D12*
%TO.P,J1,1,Pin_1*%
%TO.N,+3.3V*%
X213180000Y-108580000D03*
D13*
%TO.P,J1,2,Pin_2*%
%TO.N,GND*%
X210640000Y-108580000D03*
%TO.P,J1,3,Pin_3*%
%TO.N,unconnected-(J1-Pin_3-Pad3)*%
X208100000Y-108580000D03*
%TO.P,J1,4,Pin_4*%
%TO.N,Net-(J1-Pin_4)*%
X205560000Y-108580000D03*
%TD*%
D10*
%TO.P,LDR+,1,Pin_1*%
%TO.N,+3.3V*%
X183980000Y-126060000D03*
%TD*%
D14*
%TO.P,R2,1*%
%TO.N,Net-(U1-D34)*%
X156040000Y-123520000D03*
%TO.P,R2,2*%
%TO.N,GND*%
X153040000Y-123520000D03*
%TD*%
%TO.P,R1,1*%
%TO.N,GND*%
X163200000Y-123520000D03*
%TO.P,R1,2*%
%TO.N,Net-(LDRPin1-Pin_1)*%
X166200000Y-123520000D03*
%TD*%
D10*
%TO.P,Batt1,1,Pin_1*%
%TO.N,+BATT*%
X214460000Y-128600000D03*
D15*
%TO.P,Batt1,2,Pin_2*%
%TO.N,GND*%
X214460000Y-126060000D03*
%TD*%
D10*
%TO.P,Switch,1,Pin_1*%
%TO.N,+5V*%
X145880000Y-133680000D03*
D15*
%TO.P,Switch,2,Pin_2*%
%TO.N,Net-(U1-VIN)*%
X143340000Y-133680000D03*
%TD*%
D10*
%TO.P,pushButton1,1,Pin_1*%
%TO.N,+3.3V*%
X160350000Y-113360000D03*
D15*
%TO.P,pushButton1,2,Pin_2*%
%TO.N,Net-(U1-D34)*%
X162890000Y-113360000D03*
%TD*%
D10*
%TO.P,MicroUSB1,1,Pin_1*%
%TO.N,Net-(MicroUSB1-Pin_1)*%
X214460000Y-120980000D03*
D15*
%TO.P,MicroUSB1,2,Pin_2*%
%TO.N,Net-(MicroUSB1-Pin_2)*%
X214460000Y-118440000D03*
%TD*%
D16*
%TO.P,Brd1,1,GND*%
%TO.N,GND*%
X157680000Y-84980000D03*
%TO.P,Brd1,2,VCC*%
%TO.N,+3.3V*%
X160220000Y-84980000D03*
%TO.P,Brd1,3,SCL*%
%TO.N,/scl*%
X162760000Y-84980000D03*
%TO.P,Brd1,4,SDA*%
%TO.N,/sda*%
X165300000Y-84980000D03*
%TD*%
D17*
%TO.P,U1,1,3V3*%
%TO.N,+3.3V*%
X133180000Y-123520000D03*
D18*
%TO.P,U1,2,GND*%
%TO.N,GND*%
X133180000Y-120980000D03*
%TO.P,U1,3,D15*%
%TO.N,unconnected-(U1-D15-Pad3)*%
X133180000Y-118440000D03*
%TO.P,U1,4,D2*%
%TO.N,unconnected-(U1-D2-Pad4)*%
X133180000Y-115900000D03*
%TO.P,U1,5,D4*%
%TO.N,/d4*%
X133180000Y-113360000D03*
%TO.P,U1,6,RX2*%
%TO.N,unconnected-(U1-RX2-Pad6)*%
X133180000Y-110820000D03*
%TO.P,U1,7,TX2*%
%TO.N,unconnected-(U1-TX2-Pad7)*%
X133180000Y-108280000D03*
%TO.P,U1,8,D5*%
%TO.N,unconnected-(U1-D5-Pad8)*%
X133180000Y-105740000D03*
%TO.P,U1,9,D18*%
%TO.N,unconnected-(U1-D18-Pad9)*%
X133180000Y-103200000D03*
%TO.P,U1,10,D19*%
%TO.N,unconnected-(U1-D19-Pad10)*%
X133180000Y-100660000D03*
%TO.P,U1,11,D21*%
%TO.N,/sda*%
X133180000Y-98120000D03*
%TO.P,U1,12,RX0*%
%TO.N,unconnected-(U1-RX0-Pad12)*%
X133180000Y-95580000D03*
%TO.P,U1,13,TX0*%
%TO.N,unconnected-(U1-TX0-Pad13)*%
X133180000Y-93040000D03*
%TO.P,U1,14,D22*%
%TO.N,/scl*%
X133180000Y-90500000D03*
%TO.P,U1,15,D23*%
%TO.N,unconnected-(U1-D23-Pad15)*%
X133180000Y-87960000D03*
%TO.P,U1,16,EN*%
%TO.N,unconnected-(U1-EN-Pad16)*%
X107780000Y-87960000D03*
%TO.P,U1,17,VP*%
%TO.N,unconnected-(U1-VP-Pad17)*%
X107780000Y-90500000D03*
%TO.P,U1,18,VN*%
%TO.N,unconnected-(U1-VN-Pad18)*%
X107780000Y-93040000D03*
%TO.P,U1,19,D34*%
%TO.N,Net-(U1-D34)*%
X107780000Y-95580000D03*
%TO.P,U1,20,D35*%
%TO.N,Net-(J1-Pin_4)*%
X107780000Y-98120000D03*
%TO.P,U1,21,D32*%
%TO.N,Net-(LDRPin1-Pin_1)*%
X107780000Y-100660000D03*
%TO.P,U1,22,D33*%
%TO.N,unconnected-(U1-D33-Pad22)*%
X107780000Y-103200000D03*
%TO.P,U1,23,D25*%
%TO.N,unconnected-(U1-D25-Pad23)*%
X107780000Y-105740000D03*
%TO.P,U1,24,D26*%
%TO.N,unconnected-(U1-D26-Pad24)*%
X107780000Y-108280000D03*
%TO.P,U1,25,D27*%
%TO.N,unconnected-(U1-D27-Pad25)*%
X107780000Y-110820000D03*
%TO.P,U1,26,D14*%
%TO.N,unconnected-(U1-D14-Pad26)*%
X107780000Y-113360000D03*
%TO.P,U1,27,D12*%
%TO.N,unconnected-(U1-D12-Pad27)*%
X107780000Y-115900000D03*
%TO.P,U1,28,D13*%
%TO.N,unconnected-(U1-D13-Pad28)*%
X107780000Y-118440000D03*
%TO.P,U1,29,GND*%
%TO.N,GND*%
X107780000Y-120980000D03*
%TO.P,U1,30,VIN*%
%TO.N,Net-(U1-VIN)*%
X107780000Y-123520000D03*
%TD*%
M02*
