%TF.GenerationSoftware,KiCad,Pcbnew,7.0.9*%
%TF.CreationDate,2023-11-28T16:56:20-05:00*%
%TF.ProjectId,PCB taller de electronica,50434220-7461-46c6-9c65-722064652065,rev?*%
%TF.SameCoordinates,Original*%
%TF.FileFunction,Legend,Top*%
%TF.FilePolarity,Positive*%
%FSLAX46Y46*%
G04 Gerber Fmt 4.6, Leading zero omitted, Abs format (unit mm)*
G04 Created by KiCad (PCBNEW 7.0.9) date 2023-11-28 16:56:20*
%MOMM*%
%LPD*%
G01*
G04 APERTURE LIST*
%ADD10C,0.150000*%
%ADD11C,0.120000*%
%ADD12C,0.127000*%
%ADD13C,0.200000*%
G04 APERTURE END LIST*
D10*
X181440000Y-85420000D02*
X196680000Y-85420000D01*
X196680000Y-115900000D01*
X181440000Y-115900000D01*
X181440000Y-85420000D01*
X201760000Y-80340000D02*
X217000000Y-80340000D01*
X217000000Y-110820000D01*
X201760000Y-110820000D01*
X201760000Y-80340000D01*
X174002857Y-129994819D02*
X173526667Y-129994819D01*
X173526667Y-129994819D02*
X173526667Y-128994819D01*
X174336191Y-129994819D02*
X174336191Y-128994819D01*
X174336191Y-128994819D02*
X174574286Y-128994819D01*
X174574286Y-128994819D02*
X174717143Y-129042438D01*
X174717143Y-129042438D02*
X174812381Y-129137676D01*
X174812381Y-129137676D02*
X174860000Y-129232914D01*
X174860000Y-129232914D02*
X174907619Y-129423390D01*
X174907619Y-129423390D02*
X174907619Y-129566247D01*
X174907619Y-129566247D02*
X174860000Y-129756723D01*
X174860000Y-129756723D02*
X174812381Y-129851961D01*
X174812381Y-129851961D02*
X174717143Y-129947200D01*
X174717143Y-129947200D02*
X174574286Y-129994819D01*
X174574286Y-129994819D02*
X174336191Y-129994819D01*
X175907619Y-129994819D02*
X175574286Y-129518628D01*
X175336191Y-129994819D02*
X175336191Y-128994819D01*
X175336191Y-128994819D02*
X175717143Y-128994819D01*
X175717143Y-128994819D02*
X175812381Y-129042438D01*
X175812381Y-129042438D02*
X175860000Y-129090057D01*
X175860000Y-129090057D02*
X175907619Y-129185295D01*
X175907619Y-129185295D02*
X175907619Y-129328152D01*
X175907619Y-129328152D02*
X175860000Y-129423390D01*
X175860000Y-129423390D02*
X175812381Y-129471009D01*
X175812381Y-129471009D02*
X175717143Y-129518628D01*
X175717143Y-129518628D02*
X175336191Y-129518628D01*
X176336191Y-129994819D02*
X176336191Y-128994819D01*
X176336191Y-128994819D02*
X176717143Y-128994819D01*
X176717143Y-128994819D02*
X176812381Y-129042438D01*
X176812381Y-129042438D02*
X176860000Y-129090057D01*
X176860000Y-129090057D02*
X176907619Y-129185295D01*
X176907619Y-129185295D02*
X176907619Y-129328152D01*
X176907619Y-129328152D02*
X176860000Y-129423390D01*
X176860000Y-129423390D02*
X176812381Y-129471009D01*
X176812381Y-129471009D02*
X176717143Y-129518628D01*
X176717143Y-129518628D02*
X176336191Y-129518628D01*
X177336191Y-129994819D02*
X177336191Y-129328152D01*
X177336191Y-128994819D02*
X177288572Y-129042438D01*
X177288572Y-129042438D02*
X177336191Y-129090057D01*
X177336191Y-129090057D02*
X177383810Y-129042438D01*
X177383810Y-129042438D02*
X177336191Y-128994819D01*
X177336191Y-128994819D02*
X177336191Y-129090057D01*
X177812381Y-129328152D02*
X177812381Y-129994819D01*
X177812381Y-129423390D02*
X177860000Y-129375771D01*
X177860000Y-129375771D02*
X177955238Y-129328152D01*
X177955238Y-129328152D02*
X178098095Y-129328152D01*
X178098095Y-129328152D02*
X178193333Y-129375771D01*
X178193333Y-129375771D02*
X178240952Y-129471009D01*
X178240952Y-129471009D02*
X178240952Y-129994819D01*
X179240952Y-129994819D02*
X178669524Y-129994819D01*
X178955238Y-129994819D02*
X178955238Y-128994819D01*
X178955238Y-128994819D02*
X178860000Y-129137676D01*
X178860000Y-129137676D02*
X178764762Y-129232914D01*
X178764762Y-129232914D02*
X178669524Y-129280533D01*
X194691429Y-122374819D02*
X194691429Y-121374819D01*
X194691429Y-121374819D02*
X195024762Y-122089104D01*
X195024762Y-122089104D02*
X195358095Y-121374819D01*
X195358095Y-121374819D02*
X195358095Y-122374819D01*
X195834286Y-122374819D02*
X195834286Y-121374819D01*
X195834286Y-121851009D02*
X196405714Y-121851009D01*
X196405714Y-122374819D02*
X196405714Y-121374819D01*
X196881905Y-121993866D02*
X197643810Y-121993866D01*
X198691428Y-122279580D02*
X198643809Y-122327200D01*
X198643809Y-122327200D02*
X198500952Y-122374819D01*
X198500952Y-122374819D02*
X198405714Y-122374819D01*
X198405714Y-122374819D02*
X198262857Y-122327200D01*
X198262857Y-122327200D02*
X198167619Y-122231961D01*
X198167619Y-122231961D02*
X198120000Y-122136723D01*
X198120000Y-122136723D02*
X198072381Y-121946247D01*
X198072381Y-121946247D02*
X198072381Y-121803390D01*
X198072381Y-121803390D02*
X198120000Y-121612914D01*
X198120000Y-121612914D02*
X198167619Y-121517676D01*
X198167619Y-121517676D02*
X198262857Y-121422438D01*
X198262857Y-121422438D02*
X198405714Y-121374819D01*
X198405714Y-121374819D02*
X198500952Y-121374819D01*
X198500952Y-121374819D02*
X198643809Y-121422438D01*
X198643809Y-121422438D02*
X198691428Y-121470057D01*
X199120000Y-122374819D02*
X199120000Y-121374819D01*
X199120000Y-121374819D02*
X199358095Y-121374819D01*
X199358095Y-121374819D02*
X199500952Y-121422438D01*
X199500952Y-121422438D02*
X199596190Y-121517676D01*
X199596190Y-121517676D02*
X199643809Y-121612914D01*
X199643809Y-121612914D02*
X199691428Y-121803390D01*
X199691428Y-121803390D02*
X199691428Y-121946247D01*
X199691428Y-121946247D02*
X199643809Y-122136723D01*
X199643809Y-122136723D02*
X199596190Y-122231961D01*
X199596190Y-122231961D02*
X199500952Y-122327200D01*
X199500952Y-122327200D02*
X199358095Y-122374819D01*
X199358095Y-122374819D02*
X199120000Y-122374819D01*
X200548571Y-121708152D02*
X200548571Y-122374819D01*
X200310476Y-121327200D02*
X200072381Y-122041485D01*
X200072381Y-122041485D02*
X200691428Y-122041485D01*
X201024762Y-121470057D02*
X201072381Y-121422438D01*
X201072381Y-121422438D02*
X201167619Y-121374819D01*
X201167619Y-121374819D02*
X201405714Y-121374819D01*
X201405714Y-121374819D02*
X201500952Y-121422438D01*
X201500952Y-121422438D02*
X201548571Y-121470057D01*
X201548571Y-121470057D02*
X201596190Y-121565295D01*
X201596190Y-121565295D02*
X201596190Y-121660533D01*
X201596190Y-121660533D02*
X201548571Y-121803390D01*
X201548571Y-121803390D02*
X200977143Y-122374819D01*
X200977143Y-122374819D02*
X201596190Y-122374819D01*
X188776666Y-90814819D02*
X188776666Y-91529104D01*
X188776666Y-91529104D02*
X188729047Y-91671961D01*
X188729047Y-91671961D02*
X188633809Y-91767200D01*
X188633809Y-91767200D02*
X188490952Y-91814819D01*
X188490952Y-91814819D02*
X188395714Y-91814819D01*
X189205238Y-90910057D02*
X189252857Y-90862438D01*
X189252857Y-90862438D02*
X189348095Y-90814819D01*
X189348095Y-90814819D02*
X189586190Y-90814819D01*
X189586190Y-90814819D02*
X189681428Y-90862438D01*
X189681428Y-90862438D02*
X189729047Y-90910057D01*
X189729047Y-90910057D02*
X189776666Y-91005295D01*
X189776666Y-91005295D02*
X189776666Y-91100533D01*
X189776666Y-91100533D02*
X189729047Y-91243390D01*
X189729047Y-91243390D02*
X189157619Y-91814819D01*
X189157619Y-91814819D02*
X189776666Y-91814819D01*
X186940952Y-81734819D02*
X186940952Y-80734819D01*
X186940952Y-80734819D02*
X187179047Y-80734819D01*
X187179047Y-80734819D02*
X187321904Y-80782438D01*
X187321904Y-80782438D02*
X187417142Y-80877676D01*
X187417142Y-80877676D02*
X187464761Y-80972914D01*
X187464761Y-80972914D02*
X187512380Y-81163390D01*
X187512380Y-81163390D02*
X187512380Y-81306247D01*
X187512380Y-81306247D02*
X187464761Y-81496723D01*
X187464761Y-81496723D02*
X187417142Y-81591961D01*
X187417142Y-81591961D02*
X187321904Y-81687200D01*
X187321904Y-81687200D02*
X187179047Y-81734819D01*
X187179047Y-81734819D02*
X186940952Y-81734819D01*
X187940952Y-81734819D02*
X187940952Y-80734819D01*
X187940952Y-81211009D02*
X188512380Y-81211009D01*
X188512380Y-81734819D02*
X188512380Y-80734819D01*
X188845714Y-80734819D02*
X189417142Y-80734819D01*
X189131428Y-81734819D02*
X189131428Y-80734819D01*
X190274285Y-81734819D02*
X189702857Y-81734819D01*
X189988571Y-81734819D02*
X189988571Y-80734819D01*
X189988571Y-80734819D02*
X189893333Y-80877676D01*
X189893333Y-80877676D02*
X189798095Y-80972914D01*
X189798095Y-80972914D02*
X189702857Y-81020533D01*
X191226666Y-81734819D02*
X190655238Y-81734819D01*
X190940952Y-81734819D02*
X190940952Y-80734819D01*
X190940952Y-80734819D02*
X190845714Y-80877676D01*
X190845714Y-80877676D02*
X190750476Y-80972914D01*
X190750476Y-80972914D02*
X190655238Y-81020533D01*
X182670476Y-129994819D02*
X182194286Y-129994819D01*
X182194286Y-129994819D02*
X182194286Y-128994819D01*
X183003810Y-129994819D02*
X183003810Y-128994819D01*
X183003810Y-128994819D02*
X183241905Y-128994819D01*
X183241905Y-128994819D02*
X183384762Y-129042438D01*
X183384762Y-129042438D02*
X183480000Y-129137676D01*
X183480000Y-129137676D02*
X183527619Y-129232914D01*
X183527619Y-129232914D02*
X183575238Y-129423390D01*
X183575238Y-129423390D02*
X183575238Y-129566247D01*
X183575238Y-129566247D02*
X183527619Y-129756723D01*
X183527619Y-129756723D02*
X183480000Y-129851961D01*
X183480000Y-129851961D02*
X183384762Y-129947200D01*
X183384762Y-129947200D02*
X183241905Y-129994819D01*
X183241905Y-129994819D02*
X183003810Y-129994819D01*
X184575238Y-129994819D02*
X184241905Y-129518628D01*
X184003810Y-129994819D02*
X184003810Y-128994819D01*
X184003810Y-128994819D02*
X184384762Y-128994819D01*
X184384762Y-128994819D02*
X184480000Y-129042438D01*
X184480000Y-129042438D02*
X184527619Y-129090057D01*
X184527619Y-129090057D02*
X184575238Y-129185295D01*
X184575238Y-129185295D02*
X184575238Y-129328152D01*
X184575238Y-129328152D02*
X184527619Y-129423390D01*
X184527619Y-129423390D02*
X184480000Y-129471009D01*
X184480000Y-129471009D02*
X184384762Y-129518628D01*
X184384762Y-129518628D02*
X184003810Y-129518628D01*
X185003810Y-129613866D02*
X185765715Y-129613866D01*
X185384762Y-129994819D02*
X185384762Y-129232914D01*
X154373333Y-127454819D02*
X154040000Y-126978628D01*
X153801905Y-127454819D02*
X153801905Y-126454819D01*
X153801905Y-126454819D02*
X154182857Y-126454819D01*
X154182857Y-126454819D02*
X154278095Y-126502438D01*
X154278095Y-126502438D02*
X154325714Y-126550057D01*
X154325714Y-126550057D02*
X154373333Y-126645295D01*
X154373333Y-126645295D02*
X154373333Y-126788152D01*
X154373333Y-126788152D02*
X154325714Y-126883390D01*
X154325714Y-126883390D02*
X154278095Y-126931009D01*
X154278095Y-126931009D02*
X154182857Y-126978628D01*
X154182857Y-126978628D02*
X153801905Y-126978628D01*
X154754286Y-126550057D02*
X154801905Y-126502438D01*
X154801905Y-126502438D02*
X154897143Y-126454819D01*
X154897143Y-126454819D02*
X155135238Y-126454819D01*
X155135238Y-126454819D02*
X155230476Y-126502438D01*
X155230476Y-126502438D02*
X155278095Y-126550057D01*
X155278095Y-126550057D02*
X155325714Y-126645295D01*
X155325714Y-126645295D02*
X155325714Y-126740533D01*
X155325714Y-126740533D02*
X155278095Y-126883390D01*
X155278095Y-126883390D02*
X154706667Y-127454819D01*
X154706667Y-127454819D02*
X155325714Y-127454819D01*
X164933333Y-127454819D02*
X164600000Y-126978628D01*
X164361905Y-127454819D02*
X164361905Y-126454819D01*
X164361905Y-126454819D02*
X164742857Y-126454819D01*
X164742857Y-126454819D02*
X164838095Y-126502438D01*
X164838095Y-126502438D02*
X164885714Y-126550057D01*
X164885714Y-126550057D02*
X164933333Y-126645295D01*
X164933333Y-126645295D02*
X164933333Y-126788152D01*
X164933333Y-126788152D02*
X164885714Y-126883390D01*
X164885714Y-126883390D02*
X164838095Y-126931009D01*
X164838095Y-126931009D02*
X164742857Y-126978628D01*
X164742857Y-126978628D02*
X164361905Y-126978628D01*
X165885714Y-127454819D02*
X165314286Y-127454819D01*
X165600000Y-127454819D02*
X165600000Y-126454819D01*
X165600000Y-126454819D02*
X165504762Y-126597676D01*
X165504762Y-126597676D02*
X165409524Y-126692914D01*
X165409524Y-126692914D02*
X165314286Y-126740533D01*
X213031428Y-132011009D02*
X213174285Y-132058628D01*
X213174285Y-132058628D02*
X213221904Y-132106247D01*
X213221904Y-132106247D02*
X213269523Y-132201485D01*
X213269523Y-132201485D02*
X213269523Y-132344342D01*
X213269523Y-132344342D02*
X213221904Y-132439580D01*
X213221904Y-132439580D02*
X213174285Y-132487200D01*
X213174285Y-132487200D02*
X213079047Y-132534819D01*
X213079047Y-132534819D02*
X212698095Y-132534819D01*
X212698095Y-132534819D02*
X212698095Y-131534819D01*
X212698095Y-131534819D02*
X213031428Y-131534819D01*
X213031428Y-131534819D02*
X213126666Y-131582438D01*
X213126666Y-131582438D02*
X213174285Y-131630057D01*
X213174285Y-131630057D02*
X213221904Y-131725295D01*
X213221904Y-131725295D02*
X213221904Y-131820533D01*
X213221904Y-131820533D02*
X213174285Y-131915771D01*
X213174285Y-131915771D02*
X213126666Y-131963390D01*
X213126666Y-131963390D02*
X213031428Y-132011009D01*
X213031428Y-132011009D02*
X212698095Y-132011009D01*
X214126666Y-132534819D02*
X214126666Y-132011009D01*
X214126666Y-132011009D02*
X214079047Y-131915771D01*
X214079047Y-131915771D02*
X213983809Y-131868152D01*
X213983809Y-131868152D02*
X213793333Y-131868152D01*
X213793333Y-131868152D02*
X213698095Y-131915771D01*
X214126666Y-132487200D02*
X214031428Y-132534819D01*
X214031428Y-132534819D02*
X213793333Y-132534819D01*
X213793333Y-132534819D02*
X213698095Y-132487200D01*
X213698095Y-132487200D02*
X213650476Y-132391961D01*
X213650476Y-132391961D02*
X213650476Y-132296723D01*
X213650476Y-132296723D02*
X213698095Y-132201485D01*
X213698095Y-132201485D02*
X213793333Y-132153866D01*
X213793333Y-132153866D02*
X214031428Y-132153866D01*
X214031428Y-132153866D02*
X214126666Y-132106247D01*
X214460000Y-131868152D02*
X214840952Y-131868152D01*
X214602857Y-131534819D02*
X214602857Y-132391961D01*
X214602857Y-132391961D02*
X214650476Y-132487200D01*
X214650476Y-132487200D02*
X214745714Y-132534819D01*
X214745714Y-132534819D02*
X214840952Y-132534819D01*
X215031429Y-131868152D02*
X215412381Y-131868152D01*
X215174286Y-131534819D02*
X215174286Y-132391961D01*
X215174286Y-132391961D02*
X215221905Y-132487200D01*
X215221905Y-132487200D02*
X215317143Y-132534819D01*
X215317143Y-132534819D02*
X215412381Y-132534819D01*
X216269524Y-132534819D02*
X215698096Y-132534819D01*
X215983810Y-132534819D02*
X215983810Y-131534819D01*
X215983810Y-131534819D02*
X215888572Y-131677676D01*
X215888572Y-131677676D02*
X215793334Y-131772914D01*
X215793334Y-131772914D02*
X215698096Y-131820533D01*
X142565714Y-129947200D02*
X142708571Y-129994819D01*
X142708571Y-129994819D02*
X142946666Y-129994819D01*
X142946666Y-129994819D02*
X143041904Y-129947200D01*
X143041904Y-129947200D02*
X143089523Y-129899580D01*
X143089523Y-129899580D02*
X143137142Y-129804342D01*
X143137142Y-129804342D02*
X143137142Y-129709104D01*
X143137142Y-129709104D02*
X143089523Y-129613866D01*
X143089523Y-129613866D02*
X143041904Y-129566247D01*
X143041904Y-129566247D02*
X142946666Y-129518628D01*
X142946666Y-129518628D02*
X142756190Y-129471009D01*
X142756190Y-129471009D02*
X142660952Y-129423390D01*
X142660952Y-129423390D02*
X142613333Y-129375771D01*
X142613333Y-129375771D02*
X142565714Y-129280533D01*
X142565714Y-129280533D02*
X142565714Y-129185295D01*
X142565714Y-129185295D02*
X142613333Y-129090057D01*
X142613333Y-129090057D02*
X142660952Y-129042438D01*
X142660952Y-129042438D02*
X142756190Y-128994819D01*
X142756190Y-128994819D02*
X142994285Y-128994819D01*
X142994285Y-128994819D02*
X143137142Y-129042438D01*
X143470476Y-129328152D02*
X143660952Y-129994819D01*
X143660952Y-129994819D02*
X143851428Y-129518628D01*
X143851428Y-129518628D02*
X144041904Y-129994819D01*
X144041904Y-129994819D02*
X144232380Y-129328152D01*
X144613333Y-129994819D02*
X144613333Y-129328152D01*
X144613333Y-128994819D02*
X144565714Y-129042438D01*
X144565714Y-129042438D02*
X144613333Y-129090057D01*
X144613333Y-129090057D02*
X144660952Y-129042438D01*
X144660952Y-129042438D02*
X144613333Y-128994819D01*
X144613333Y-128994819D02*
X144613333Y-129090057D01*
X144946666Y-129328152D02*
X145327618Y-129328152D01*
X145089523Y-128994819D02*
X145089523Y-129851961D01*
X145089523Y-129851961D02*
X145137142Y-129947200D01*
X145137142Y-129947200D02*
X145232380Y-129994819D01*
X145232380Y-129994819D02*
X145327618Y-129994819D01*
X146089523Y-129947200D02*
X145994285Y-129994819D01*
X145994285Y-129994819D02*
X145803809Y-129994819D01*
X145803809Y-129994819D02*
X145708571Y-129947200D01*
X145708571Y-129947200D02*
X145660952Y-129899580D01*
X145660952Y-129899580D02*
X145613333Y-129804342D01*
X145613333Y-129804342D02*
X145613333Y-129518628D01*
X145613333Y-129518628D02*
X145660952Y-129423390D01*
X145660952Y-129423390D02*
X145708571Y-129375771D01*
X145708571Y-129375771D02*
X145803809Y-129328152D01*
X145803809Y-129328152D02*
X145994285Y-129328152D01*
X145994285Y-129328152D02*
X146089523Y-129375771D01*
X146518095Y-129994819D02*
X146518095Y-128994819D01*
X146946666Y-129994819D02*
X146946666Y-129471009D01*
X146946666Y-129471009D02*
X146899047Y-129375771D01*
X146899047Y-129375771D02*
X146803809Y-129328152D01*
X146803809Y-129328152D02*
X146660952Y-129328152D01*
X146660952Y-129328152D02*
X146565714Y-129375771D01*
X146565714Y-129375771D02*
X146518095Y-129423390D01*
X158131428Y-116628152D02*
X158131428Y-117628152D01*
X158131428Y-116675771D02*
X158226666Y-116628152D01*
X158226666Y-116628152D02*
X158417142Y-116628152D01*
X158417142Y-116628152D02*
X158512380Y-116675771D01*
X158512380Y-116675771D02*
X158559999Y-116723390D01*
X158559999Y-116723390D02*
X158607618Y-116818628D01*
X158607618Y-116818628D02*
X158607618Y-117104342D01*
X158607618Y-117104342D02*
X158559999Y-117199580D01*
X158559999Y-117199580D02*
X158512380Y-117247200D01*
X158512380Y-117247200D02*
X158417142Y-117294819D01*
X158417142Y-117294819D02*
X158226666Y-117294819D01*
X158226666Y-117294819D02*
X158131428Y-117247200D01*
X159464761Y-116628152D02*
X159464761Y-117294819D01*
X159036190Y-116628152D02*
X159036190Y-117151961D01*
X159036190Y-117151961D02*
X159083809Y-117247200D01*
X159083809Y-117247200D02*
X159179047Y-117294819D01*
X159179047Y-117294819D02*
X159321904Y-117294819D01*
X159321904Y-117294819D02*
X159417142Y-117247200D01*
X159417142Y-117247200D02*
X159464761Y-117199580D01*
X159893333Y-117247200D02*
X159988571Y-117294819D01*
X159988571Y-117294819D02*
X160179047Y-117294819D01*
X160179047Y-117294819D02*
X160274285Y-117247200D01*
X160274285Y-117247200D02*
X160321904Y-117151961D01*
X160321904Y-117151961D02*
X160321904Y-117104342D01*
X160321904Y-117104342D02*
X160274285Y-117009104D01*
X160274285Y-117009104D02*
X160179047Y-116961485D01*
X160179047Y-116961485D02*
X160036190Y-116961485D01*
X160036190Y-116961485D02*
X159940952Y-116913866D01*
X159940952Y-116913866D02*
X159893333Y-116818628D01*
X159893333Y-116818628D02*
X159893333Y-116771009D01*
X159893333Y-116771009D02*
X159940952Y-116675771D01*
X159940952Y-116675771D02*
X160036190Y-116628152D01*
X160036190Y-116628152D02*
X160179047Y-116628152D01*
X160179047Y-116628152D02*
X160274285Y-116675771D01*
X160750476Y-117294819D02*
X160750476Y-116294819D01*
X161179047Y-117294819D02*
X161179047Y-116771009D01*
X161179047Y-116771009D02*
X161131428Y-116675771D01*
X161131428Y-116675771D02*
X161036190Y-116628152D01*
X161036190Y-116628152D02*
X160893333Y-116628152D01*
X160893333Y-116628152D02*
X160798095Y-116675771D01*
X160798095Y-116675771D02*
X160750476Y-116723390D01*
X161988571Y-116771009D02*
X162131428Y-116818628D01*
X162131428Y-116818628D02*
X162179047Y-116866247D01*
X162179047Y-116866247D02*
X162226666Y-116961485D01*
X162226666Y-116961485D02*
X162226666Y-117104342D01*
X162226666Y-117104342D02*
X162179047Y-117199580D01*
X162179047Y-117199580D02*
X162131428Y-117247200D01*
X162131428Y-117247200D02*
X162036190Y-117294819D01*
X162036190Y-117294819D02*
X161655238Y-117294819D01*
X161655238Y-117294819D02*
X161655238Y-116294819D01*
X161655238Y-116294819D02*
X161988571Y-116294819D01*
X161988571Y-116294819D02*
X162083809Y-116342438D01*
X162083809Y-116342438D02*
X162131428Y-116390057D01*
X162131428Y-116390057D02*
X162179047Y-116485295D01*
X162179047Y-116485295D02*
X162179047Y-116580533D01*
X162179047Y-116580533D02*
X162131428Y-116675771D01*
X162131428Y-116675771D02*
X162083809Y-116723390D01*
X162083809Y-116723390D02*
X161988571Y-116771009D01*
X161988571Y-116771009D02*
X161655238Y-116771009D01*
X163083809Y-116628152D02*
X163083809Y-117294819D01*
X162655238Y-116628152D02*
X162655238Y-117151961D01*
X162655238Y-117151961D02*
X162702857Y-117247200D01*
X162702857Y-117247200D02*
X162798095Y-117294819D01*
X162798095Y-117294819D02*
X162940952Y-117294819D01*
X162940952Y-117294819D02*
X163036190Y-117247200D01*
X163036190Y-117247200D02*
X163083809Y-117199580D01*
X163417143Y-116628152D02*
X163798095Y-116628152D01*
X163560000Y-116294819D02*
X163560000Y-117151961D01*
X163560000Y-117151961D02*
X163607619Y-117247200D01*
X163607619Y-117247200D02*
X163702857Y-117294819D01*
X163702857Y-117294819D02*
X163798095Y-117294819D01*
X163988572Y-116628152D02*
X164369524Y-116628152D01*
X164131429Y-116294819D02*
X164131429Y-117151961D01*
X164131429Y-117151961D02*
X164179048Y-117247200D01*
X164179048Y-117247200D02*
X164274286Y-117294819D01*
X164274286Y-117294819D02*
X164369524Y-117294819D01*
X164845715Y-117294819D02*
X164750477Y-117247200D01*
X164750477Y-117247200D02*
X164702858Y-117199580D01*
X164702858Y-117199580D02*
X164655239Y-117104342D01*
X164655239Y-117104342D02*
X164655239Y-116818628D01*
X164655239Y-116818628D02*
X164702858Y-116723390D01*
X164702858Y-116723390D02*
X164750477Y-116675771D01*
X164750477Y-116675771D02*
X164845715Y-116628152D01*
X164845715Y-116628152D02*
X164988572Y-116628152D01*
X164988572Y-116628152D02*
X165083810Y-116675771D01*
X165083810Y-116675771D02*
X165131429Y-116723390D01*
X165131429Y-116723390D02*
X165179048Y-116818628D01*
X165179048Y-116818628D02*
X165179048Y-117104342D01*
X165179048Y-117104342D02*
X165131429Y-117199580D01*
X165131429Y-117199580D02*
X165083810Y-117247200D01*
X165083810Y-117247200D02*
X164988572Y-117294819D01*
X164988572Y-117294819D02*
X164845715Y-117294819D01*
X165607620Y-116628152D02*
X165607620Y-117294819D01*
X165607620Y-116723390D02*
X165655239Y-116675771D01*
X165655239Y-116675771D02*
X165750477Y-116628152D01*
X165750477Y-116628152D02*
X165893334Y-116628152D01*
X165893334Y-116628152D02*
X165988572Y-116675771D01*
X165988572Y-116675771D02*
X166036191Y-116771009D01*
X166036191Y-116771009D02*
X166036191Y-117294819D01*
X167036191Y-117294819D02*
X166464763Y-117294819D01*
X166750477Y-117294819D02*
X166750477Y-116294819D01*
X166750477Y-116294819D02*
X166655239Y-116437676D01*
X166655239Y-116437676D02*
X166560001Y-116532914D01*
X166560001Y-116532914D02*
X166464763Y-116580533D01*
X204541905Y-117294819D02*
X204541905Y-116294819D01*
X204541905Y-116294819D02*
X204875238Y-117009104D01*
X204875238Y-117009104D02*
X205208571Y-116294819D01*
X205208571Y-116294819D02*
X205208571Y-117294819D01*
X205684762Y-117294819D02*
X205684762Y-116628152D01*
X205684762Y-116294819D02*
X205637143Y-116342438D01*
X205637143Y-116342438D02*
X205684762Y-116390057D01*
X205684762Y-116390057D02*
X205732381Y-116342438D01*
X205732381Y-116342438D02*
X205684762Y-116294819D01*
X205684762Y-116294819D02*
X205684762Y-116390057D01*
X206589523Y-117247200D02*
X206494285Y-117294819D01*
X206494285Y-117294819D02*
X206303809Y-117294819D01*
X206303809Y-117294819D02*
X206208571Y-117247200D01*
X206208571Y-117247200D02*
X206160952Y-117199580D01*
X206160952Y-117199580D02*
X206113333Y-117104342D01*
X206113333Y-117104342D02*
X206113333Y-116818628D01*
X206113333Y-116818628D02*
X206160952Y-116723390D01*
X206160952Y-116723390D02*
X206208571Y-116675771D01*
X206208571Y-116675771D02*
X206303809Y-116628152D01*
X206303809Y-116628152D02*
X206494285Y-116628152D01*
X206494285Y-116628152D02*
X206589523Y-116675771D01*
X207018095Y-117294819D02*
X207018095Y-116628152D01*
X207018095Y-116818628D02*
X207065714Y-116723390D01*
X207065714Y-116723390D02*
X207113333Y-116675771D01*
X207113333Y-116675771D02*
X207208571Y-116628152D01*
X207208571Y-116628152D02*
X207303809Y-116628152D01*
X207780000Y-117294819D02*
X207684762Y-117247200D01*
X207684762Y-117247200D02*
X207637143Y-117199580D01*
X207637143Y-117199580D02*
X207589524Y-117104342D01*
X207589524Y-117104342D02*
X207589524Y-116818628D01*
X207589524Y-116818628D02*
X207637143Y-116723390D01*
X207637143Y-116723390D02*
X207684762Y-116675771D01*
X207684762Y-116675771D02*
X207780000Y-116628152D01*
X207780000Y-116628152D02*
X207922857Y-116628152D01*
X207922857Y-116628152D02*
X208018095Y-116675771D01*
X208018095Y-116675771D02*
X208065714Y-116723390D01*
X208065714Y-116723390D02*
X208113333Y-116818628D01*
X208113333Y-116818628D02*
X208113333Y-117104342D01*
X208113333Y-117104342D02*
X208065714Y-117199580D01*
X208065714Y-117199580D02*
X208018095Y-117247200D01*
X208018095Y-117247200D02*
X207922857Y-117294819D01*
X207922857Y-117294819D02*
X207780000Y-117294819D01*
X208541905Y-116294819D02*
X208541905Y-117104342D01*
X208541905Y-117104342D02*
X208589524Y-117199580D01*
X208589524Y-117199580D02*
X208637143Y-117247200D01*
X208637143Y-117247200D02*
X208732381Y-117294819D01*
X208732381Y-117294819D02*
X208922857Y-117294819D01*
X208922857Y-117294819D02*
X209018095Y-117247200D01*
X209018095Y-117247200D02*
X209065714Y-117199580D01*
X209065714Y-117199580D02*
X209113333Y-117104342D01*
X209113333Y-117104342D02*
X209113333Y-116294819D01*
X209541905Y-117247200D02*
X209684762Y-117294819D01*
X209684762Y-117294819D02*
X209922857Y-117294819D01*
X209922857Y-117294819D02*
X210018095Y-117247200D01*
X210018095Y-117247200D02*
X210065714Y-117199580D01*
X210065714Y-117199580D02*
X210113333Y-117104342D01*
X210113333Y-117104342D02*
X210113333Y-117009104D01*
X210113333Y-117009104D02*
X210065714Y-116913866D01*
X210065714Y-116913866D02*
X210018095Y-116866247D01*
X210018095Y-116866247D02*
X209922857Y-116818628D01*
X209922857Y-116818628D02*
X209732381Y-116771009D01*
X209732381Y-116771009D02*
X209637143Y-116723390D01*
X209637143Y-116723390D02*
X209589524Y-116675771D01*
X209589524Y-116675771D02*
X209541905Y-116580533D01*
X209541905Y-116580533D02*
X209541905Y-116485295D01*
X209541905Y-116485295D02*
X209589524Y-116390057D01*
X209589524Y-116390057D02*
X209637143Y-116342438D01*
X209637143Y-116342438D02*
X209732381Y-116294819D01*
X209732381Y-116294819D02*
X209970476Y-116294819D01*
X209970476Y-116294819D02*
X210113333Y-116342438D01*
X210875238Y-116771009D02*
X211018095Y-116818628D01*
X211018095Y-116818628D02*
X211065714Y-116866247D01*
X211065714Y-116866247D02*
X211113333Y-116961485D01*
X211113333Y-116961485D02*
X211113333Y-117104342D01*
X211113333Y-117104342D02*
X211065714Y-117199580D01*
X211065714Y-117199580D02*
X211018095Y-117247200D01*
X211018095Y-117247200D02*
X210922857Y-117294819D01*
X210922857Y-117294819D02*
X210541905Y-117294819D01*
X210541905Y-117294819D02*
X210541905Y-116294819D01*
X210541905Y-116294819D02*
X210875238Y-116294819D01*
X210875238Y-116294819D02*
X210970476Y-116342438D01*
X210970476Y-116342438D02*
X211018095Y-116390057D01*
X211018095Y-116390057D02*
X211065714Y-116485295D01*
X211065714Y-116485295D02*
X211065714Y-116580533D01*
X211065714Y-116580533D02*
X211018095Y-116675771D01*
X211018095Y-116675771D02*
X210970476Y-116723390D01*
X210970476Y-116723390D02*
X210875238Y-116771009D01*
X210875238Y-116771009D02*
X210541905Y-116771009D01*
X212065714Y-117294819D02*
X211494286Y-117294819D01*
X211780000Y-117294819D02*
X211780000Y-116294819D01*
X211780000Y-116294819D02*
X211684762Y-116437676D01*
X211684762Y-116437676D02*
X211589524Y-116532914D01*
X211589524Y-116532914D02*
X211494286Y-116580533D01*
X159393333Y-81687200D02*
X159536190Y-81734819D01*
X159536190Y-81734819D02*
X159774285Y-81734819D01*
X159774285Y-81734819D02*
X159869523Y-81687200D01*
X159869523Y-81687200D02*
X159917142Y-81639580D01*
X159917142Y-81639580D02*
X159964761Y-81544342D01*
X159964761Y-81544342D02*
X159964761Y-81449104D01*
X159964761Y-81449104D02*
X159917142Y-81353866D01*
X159917142Y-81353866D02*
X159869523Y-81306247D01*
X159869523Y-81306247D02*
X159774285Y-81258628D01*
X159774285Y-81258628D02*
X159583809Y-81211009D01*
X159583809Y-81211009D02*
X159488571Y-81163390D01*
X159488571Y-81163390D02*
X159440952Y-81115771D01*
X159440952Y-81115771D02*
X159393333Y-81020533D01*
X159393333Y-81020533D02*
X159393333Y-80925295D01*
X159393333Y-80925295D02*
X159440952Y-80830057D01*
X159440952Y-80830057D02*
X159488571Y-80782438D01*
X159488571Y-80782438D02*
X159583809Y-80734819D01*
X159583809Y-80734819D02*
X159821904Y-80734819D01*
X159821904Y-80734819D02*
X159964761Y-80782438D01*
X160345714Y-81687200D02*
X160488571Y-81734819D01*
X160488571Y-81734819D02*
X160726666Y-81734819D01*
X160726666Y-81734819D02*
X160821904Y-81687200D01*
X160821904Y-81687200D02*
X160869523Y-81639580D01*
X160869523Y-81639580D02*
X160917142Y-81544342D01*
X160917142Y-81544342D02*
X160917142Y-81449104D01*
X160917142Y-81449104D02*
X160869523Y-81353866D01*
X160869523Y-81353866D02*
X160821904Y-81306247D01*
X160821904Y-81306247D02*
X160726666Y-81258628D01*
X160726666Y-81258628D02*
X160536190Y-81211009D01*
X160536190Y-81211009D02*
X160440952Y-81163390D01*
X160440952Y-81163390D02*
X160393333Y-81115771D01*
X160393333Y-81115771D02*
X160345714Y-81020533D01*
X160345714Y-81020533D02*
X160345714Y-80925295D01*
X160345714Y-80925295D02*
X160393333Y-80830057D01*
X160393333Y-80830057D02*
X160440952Y-80782438D01*
X160440952Y-80782438D02*
X160536190Y-80734819D01*
X160536190Y-80734819D02*
X160774285Y-80734819D01*
X160774285Y-80734819D02*
X160917142Y-80782438D01*
X161345714Y-81734819D02*
X161345714Y-80734819D01*
X161345714Y-80734819D02*
X161583809Y-80734819D01*
X161583809Y-80734819D02*
X161726666Y-80782438D01*
X161726666Y-80782438D02*
X161821904Y-80877676D01*
X161821904Y-80877676D02*
X161869523Y-80972914D01*
X161869523Y-80972914D02*
X161917142Y-81163390D01*
X161917142Y-81163390D02*
X161917142Y-81306247D01*
X161917142Y-81306247D02*
X161869523Y-81496723D01*
X161869523Y-81496723D02*
X161821904Y-81591961D01*
X161821904Y-81591961D02*
X161726666Y-81687200D01*
X161726666Y-81687200D02*
X161583809Y-81734819D01*
X161583809Y-81734819D02*
X161345714Y-81734819D01*
X162869523Y-81734819D02*
X162298095Y-81734819D01*
X162583809Y-81734819D02*
X162583809Y-80734819D01*
X162583809Y-80734819D02*
X162488571Y-80877676D01*
X162488571Y-80877676D02*
X162393333Y-80972914D01*
X162393333Y-80972914D02*
X162298095Y-81020533D01*
X163202857Y-80734819D02*
X163821904Y-80734819D01*
X163821904Y-80734819D02*
X163488571Y-81115771D01*
X163488571Y-81115771D02*
X163631428Y-81115771D01*
X163631428Y-81115771D02*
X163726666Y-81163390D01*
X163726666Y-81163390D02*
X163774285Y-81211009D01*
X163774285Y-81211009D02*
X163821904Y-81306247D01*
X163821904Y-81306247D02*
X163821904Y-81544342D01*
X163821904Y-81544342D02*
X163774285Y-81639580D01*
X163774285Y-81639580D02*
X163726666Y-81687200D01*
X163726666Y-81687200D02*
X163631428Y-81734819D01*
X163631428Y-81734819D02*
X163345714Y-81734819D01*
X163345714Y-81734819D02*
X163250476Y-81687200D01*
X163250476Y-81687200D02*
X163202857Y-81639580D01*
X164440952Y-80734819D02*
X164536190Y-80734819D01*
X164536190Y-80734819D02*
X164631428Y-80782438D01*
X164631428Y-80782438D02*
X164679047Y-80830057D01*
X164679047Y-80830057D02*
X164726666Y-80925295D01*
X164726666Y-80925295D02*
X164774285Y-81115771D01*
X164774285Y-81115771D02*
X164774285Y-81353866D01*
X164774285Y-81353866D02*
X164726666Y-81544342D01*
X164726666Y-81544342D02*
X164679047Y-81639580D01*
X164679047Y-81639580D02*
X164631428Y-81687200D01*
X164631428Y-81687200D02*
X164536190Y-81734819D01*
X164536190Y-81734819D02*
X164440952Y-81734819D01*
X164440952Y-81734819D02*
X164345714Y-81687200D01*
X164345714Y-81687200D02*
X164298095Y-81639580D01*
X164298095Y-81639580D02*
X164250476Y-81544342D01*
X164250476Y-81544342D02*
X164202857Y-81353866D01*
X164202857Y-81353866D02*
X164202857Y-81115771D01*
X164202857Y-81115771D02*
X164250476Y-80925295D01*
X164250476Y-80925295D02*
X164298095Y-80830057D01*
X164298095Y-80830057D02*
X164345714Y-80782438D01*
X164345714Y-80782438D02*
X164440952Y-80734819D01*
X165631428Y-80734819D02*
X165440952Y-80734819D01*
X165440952Y-80734819D02*
X165345714Y-80782438D01*
X165345714Y-80782438D02*
X165298095Y-80830057D01*
X165298095Y-80830057D02*
X165202857Y-80972914D01*
X165202857Y-80972914D02*
X165155238Y-81163390D01*
X165155238Y-81163390D02*
X165155238Y-81544342D01*
X165155238Y-81544342D02*
X165202857Y-81639580D01*
X165202857Y-81639580D02*
X165250476Y-81687200D01*
X165250476Y-81687200D02*
X165345714Y-81734819D01*
X165345714Y-81734819D02*
X165536190Y-81734819D01*
X165536190Y-81734819D02*
X165631428Y-81687200D01*
X165631428Y-81687200D02*
X165679047Y-81639580D01*
X165679047Y-81639580D02*
X165726666Y-81544342D01*
X165726666Y-81544342D02*
X165726666Y-81306247D01*
X165726666Y-81306247D02*
X165679047Y-81211009D01*
X165679047Y-81211009D02*
X165631428Y-81163390D01*
X165631428Y-81163390D02*
X165536190Y-81115771D01*
X165536190Y-81115771D02*
X165345714Y-81115771D01*
X165345714Y-81115771D02*
X165250476Y-81163390D01*
X165250476Y-81163390D02*
X165202857Y-81211009D01*
X165202857Y-81211009D02*
X165155238Y-81306247D01*
X118897143Y-80576009D02*
X119230476Y-80576009D01*
X119373333Y-81099819D02*
X118897143Y-81099819D01*
X118897143Y-81099819D02*
X118897143Y-80099819D01*
X118897143Y-80099819D02*
X119373333Y-80099819D01*
X119754286Y-81052200D02*
X119897143Y-81099819D01*
X119897143Y-81099819D02*
X120135238Y-81099819D01*
X120135238Y-81099819D02*
X120230476Y-81052200D01*
X120230476Y-81052200D02*
X120278095Y-81004580D01*
X120278095Y-81004580D02*
X120325714Y-80909342D01*
X120325714Y-80909342D02*
X120325714Y-80814104D01*
X120325714Y-80814104D02*
X120278095Y-80718866D01*
X120278095Y-80718866D02*
X120230476Y-80671247D01*
X120230476Y-80671247D02*
X120135238Y-80623628D01*
X120135238Y-80623628D02*
X119944762Y-80576009D01*
X119944762Y-80576009D02*
X119849524Y-80528390D01*
X119849524Y-80528390D02*
X119801905Y-80480771D01*
X119801905Y-80480771D02*
X119754286Y-80385533D01*
X119754286Y-80385533D02*
X119754286Y-80290295D01*
X119754286Y-80290295D02*
X119801905Y-80195057D01*
X119801905Y-80195057D02*
X119849524Y-80147438D01*
X119849524Y-80147438D02*
X119944762Y-80099819D01*
X119944762Y-80099819D02*
X120182857Y-80099819D01*
X120182857Y-80099819D02*
X120325714Y-80147438D01*
X120754286Y-81099819D02*
X120754286Y-80099819D01*
X120754286Y-80099819D02*
X121135238Y-80099819D01*
X121135238Y-80099819D02*
X121230476Y-80147438D01*
X121230476Y-80147438D02*
X121278095Y-80195057D01*
X121278095Y-80195057D02*
X121325714Y-80290295D01*
X121325714Y-80290295D02*
X121325714Y-80433152D01*
X121325714Y-80433152D02*
X121278095Y-80528390D01*
X121278095Y-80528390D02*
X121230476Y-80576009D01*
X121230476Y-80576009D02*
X121135238Y-80623628D01*
X121135238Y-80623628D02*
X120754286Y-80623628D01*
X121659048Y-80099819D02*
X122278095Y-80099819D01*
X122278095Y-80099819D02*
X121944762Y-80480771D01*
X121944762Y-80480771D02*
X122087619Y-80480771D01*
X122087619Y-80480771D02*
X122182857Y-80528390D01*
X122182857Y-80528390D02*
X122230476Y-80576009D01*
X122230476Y-80576009D02*
X122278095Y-80671247D01*
X122278095Y-80671247D02*
X122278095Y-80909342D01*
X122278095Y-80909342D02*
X122230476Y-81004580D01*
X122230476Y-81004580D02*
X122182857Y-81052200D01*
X122182857Y-81052200D02*
X122087619Y-81099819D01*
X122087619Y-81099819D02*
X121801905Y-81099819D01*
X121801905Y-81099819D02*
X121706667Y-81052200D01*
X121706667Y-81052200D02*
X121659048Y-81004580D01*
X122659048Y-80195057D02*
X122706667Y-80147438D01*
X122706667Y-80147438D02*
X122801905Y-80099819D01*
X122801905Y-80099819D02*
X123040000Y-80099819D01*
X123040000Y-80099819D02*
X123135238Y-80147438D01*
X123135238Y-80147438D02*
X123182857Y-80195057D01*
X123182857Y-80195057D02*
X123230476Y-80290295D01*
X123230476Y-80290295D02*
X123230476Y-80385533D01*
X123230476Y-80385533D02*
X123182857Y-80528390D01*
X123182857Y-80528390D02*
X122611429Y-81099819D01*
X122611429Y-81099819D02*
X123230476Y-81099819D01*
D11*
%TO.C,LDRPin1*%
X175030000Y-127270000D02*
X175030000Y-127390000D01*
X175030000Y-127390000D02*
X177690000Y-127390000D01*
X176360000Y-124730000D02*
X177690000Y-124730000D01*
X177690000Y-124730000D02*
X177690000Y-126060000D01*
X177690000Y-127270000D02*
X177690000Y-127390000D01*
%TO.C,U2*%
X211920000Y-118440000D02*
X186520000Y-118440000D01*
X186520000Y-118440000D02*
X186520000Y-133680000D01*
X186520000Y-133680000D02*
X211920000Y-133680000D01*
X211920000Y-133680000D02*
X211920000Y-118440000D01*
%TO.C,J2*%
X192960000Y-90610000D02*
X185160000Y-90610000D01*
X192960000Y-84560000D02*
X192960000Y-90610000D01*
X191610000Y-85670000D02*
X186530000Y-85670000D01*
X191610000Y-84660000D02*
X191610000Y-85670000D01*
X186530000Y-85670000D02*
X186530000Y-84660000D01*
X185160000Y-90610000D02*
X185160000Y-84560000D01*
X185160000Y-84560000D02*
X192960000Y-84560000D01*
%TO.C,J1*%
X214530000Y-111180000D02*
X208780000Y-111180000D01*
X214530000Y-105180000D02*
X214530000Y-111180000D01*
X213180000Y-106290000D02*
X208100000Y-106290000D01*
X213180000Y-105280000D02*
X213180000Y-106290000D01*
X208100000Y-106290000D02*
X208100000Y-105280000D01*
X207430000Y-111130000D02*
X204230000Y-111130000D01*
X204230000Y-111130000D02*
X204230000Y-105180000D01*
X204230000Y-105180000D02*
X214530000Y-105180000D01*
%TO.C,LDR+*%
X182650000Y-127270000D02*
X182650000Y-127390000D01*
X182650000Y-127390000D02*
X185310000Y-127390000D01*
X183980000Y-124730000D02*
X185310000Y-124730000D01*
X185310000Y-124730000D02*
X185310000Y-126060000D01*
X185310000Y-127270000D02*
X185310000Y-127390000D01*
%TO.C,R2*%
X155940000Y-125620000D02*
X153140000Y-125620000D01*
X155940000Y-121420000D02*
X153140000Y-121420000D01*
X155926036Y-125629241D02*
G75*
G03*
X155940000Y-121420001I-1386036J2109241D01*
G01*
X153153964Y-121410759D02*
G75*
G03*
X153140000Y-125619999I1386036J-2109241D01*
G01*
%TO.C,R1*%
X163300000Y-121420000D02*
X166100000Y-121420000D01*
X163300000Y-125620000D02*
X166100000Y-125620000D01*
X163313964Y-121410759D02*
G75*
G03*
X163300000Y-125619999I1386036J-2109241D01*
G01*
X166086036Y-125629241D02*
G75*
G03*
X166100000Y-121420001I-1386036J2109241D01*
G01*
%TO.C,Batt1*%
X215790000Y-127330000D02*
X215790000Y-124730000D01*
X215790000Y-127330000D02*
X213130000Y-127330000D01*
X215790000Y-124730000D02*
X213130000Y-124730000D01*
X214460000Y-129930000D02*
X213130000Y-129930000D01*
X213130000Y-129930000D02*
X213130000Y-128600000D01*
X213130000Y-127330000D02*
X213130000Y-124730000D01*
%TO.C,Switch*%
X144610000Y-132350000D02*
X142010000Y-132350000D01*
X144610000Y-132350000D02*
X144610000Y-135010000D01*
X142010000Y-132350000D02*
X142010000Y-135010000D01*
X147210000Y-133680000D02*
X147210000Y-135010000D01*
X147210000Y-135010000D02*
X145880000Y-135010000D01*
X144610000Y-135010000D02*
X142010000Y-135010000D01*
%TO.C,pushButton1*%
X161620000Y-114690000D02*
X164220000Y-114690000D01*
X161620000Y-114690000D02*
X161620000Y-112030000D01*
X164220000Y-114690000D02*
X164220000Y-112030000D01*
X159020000Y-113360000D02*
X159020000Y-112030000D01*
X159020000Y-112030000D02*
X160350000Y-112030000D01*
X161620000Y-112030000D02*
X164220000Y-112030000D01*
%TO.C,MicroUSB1*%
X215790000Y-119710000D02*
X215790000Y-117110000D01*
X215790000Y-119710000D02*
X213130000Y-119710000D01*
X215790000Y-117110000D02*
X213130000Y-117110000D01*
X214460000Y-122310000D02*
X213130000Y-122310000D01*
X213130000Y-122310000D02*
X213130000Y-120980000D01*
X213130000Y-119710000D02*
X213130000Y-117110000D01*
%TO.C,Brd1*%
X147900000Y-83280000D02*
X175300000Y-83280000D01*
X147900000Y-110580000D02*
X147900000Y-83280000D01*
X148322000Y-86575000D02*
X171422000Y-86575000D01*
X148322000Y-103175000D02*
X148322000Y-86575000D01*
X156601000Y-83769000D02*
X156601000Y-86182000D01*
X156601000Y-83769000D02*
X166380000Y-83769000D01*
X166380000Y-83769000D02*
X166380000Y-86182000D01*
X166380000Y-86182000D02*
X156601000Y-86182000D01*
X171422000Y-86575000D02*
X174508000Y-86575000D01*
X171422000Y-103175000D02*
X148322000Y-103175000D01*
X171422000Y-103175000D02*
X174762000Y-103200000D01*
X174762000Y-86563000D02*
X174508000Y-86575000D01*
X174762000Y-103200000D02*
X174762000Y-86563000D01*
X175300000Y-83280000D02*
X175300000Y-110580000D01*
X175300000Y-110580000D02*
X147900000Y-110580000D01*
D12*
%TO.C,U1*%
X134760000Y-133480000D02*
X123691000Y-133480000D01*
X134760000Y-133480000D02*
X106250000Y-133480000D01*
X134760000Y-82530000D02*
X134760000Y-133480000D01*
X134760000Y-82530000D02*
X134760000Y-133480000D01*
X134760000Y-82530000D02*
X129390000Y-82530000D01*
X129390000Y-82530000D02*
X111700000Y-82530000D01*
X123691000Y-133480000D02*
X116980000Y-133480000D01*
X116980000Y-133480000D02*
X106250000Y-133480000D01*
X111700000Y-82530000D02*
X106250000Y-82530000D01*
X106250000Y-133480000D02*
X106250000Y-82530000D01*
X106250000Y-133480000D02*
X106250000Y-82530000D01*
X106250000Y-82530000D02*
X134760000Y-82530000D01*
D13*
X135430000Y-123520000D02*
G75*
G03*
X135430000Y-123520000I-100000J0D01*
G01*
%TD*%
M02*
