%TF.GenerationSoftware,KiCad,Pcbnew,7.0.9*%
%TF.CreationDate,2023-11-28T16:56:20-05:00*%
%TF.ProjectId,PCB taller de electronica,50434220-7461-46c6-9c65-722064652065,rev?*%
%TF.SameCoordinates,Original*%
%TF.FileFunction,Copper,L2,Bot*%
%TF.FilePolarity,Positive*%
%FSLAX46Y46*%
G04 Gerber Fmt 4.6, Leading zero omitted, Abs format (unit mm)*
G04 Created by KiCad (PCBNEW 7.0.9) date 2023-11-28 16:56:20*
%MOMM*%
%LPD*%
G01*
G04 APERTURE LIST*
%TA.AperFunction,ComponentPad*%
%ADD10R,1.700000X1.700000*%
%TD*%
%TA.AperFunction,ComponentPad*%
%ADD11C,1.524000*%
%TD*%
%TA.AperFunction,ComponentPad*%
%ADD12R,1.730000X2.030000*%
%TD*%
%TA.AperFunction,ComponentPad*%
%ADD13O,1.730000X2.030000*%
%TD*%
%TA.AperFunction,ComponentPad*%
%ADD14C,1.600000*%
%TD*%
%TA.AperFunction,ComponentPad*%
%ADD15O,1.700000X1.700000*%
%TD*%
%TA.AperFunction,ComponentPad*%
%ADD16O,1.600000X2.000000*%
%TD*%
%TA.AperFunction,ComponentPad*%
%ADD17R,2.000000X2.000000*%
%TD*%
%TA.AperFunction,ComponentPad*%
%ADD18C,2.000000*%
%TD*%
%TA.AperFunction,Conductor*%
%ADD19C,1.300000*%
%TD*%
%TA.AperFunction,Conductor*%
%ADD20C,0.900000*%
%TD*%
%TA.AperFunction,Conductor*%
%ADD21C,1.500000*%
%TD*%
G04 APERTURE END LIST*
D10*
%TO.P,LDRPin1,1,Pin_1*%
%TO.N,Net-(LDRPin1-Pin_1)*%
X176360000Y-126060000D03*
%TD*%
D11*
%TO.P,U2,1,VIN*%
%TO.N,Net-(MicroUSB1-Pin_2)*%
X187790000Y-119710000D03*
%TO.P,U2,2,GND*%
%TO.N,Net-(MicroUSB1-Pin_1)*%
X187790000Y-122250000D03*
%TO.P,U2,3,GND*%
%TO.N,GND*%
X187790000Y-124790000D03*
%TO.P,U2,4,BAT*%
%TO.N,+BATT*%
X187790000Y-127330000D03*
%TO.P,U2,5,GND*%
%TO.N,GND*%
X187790000Y-129870000D03*
%TO.P,U2,6,OUT-5V*%
%TO.N,+5V*%
X187790000Y-132410000D03*
%TD*%
D12*
%TO.P,J2,1,Pin_1*%
%TO.N,GND*%
X191610000Y-87960000D03*
D13*
%TO.P,J2,2,Pin_2*%
%TO.N,/d4*%
X189070000Y-87960000D03*
%TO.P,J2,3,Pin_3*%
%TO.N,+3.3V*%
X186530000Y-87960000D03*
%TD*%
D12*
%TO.P,J1,1,Pin_1*%
%TO.N,+3.3V*%
X213180000Y-108580000D03*
D13*
%TO.P,J1,2,Pin_2*%
%TO.N,GND*%
X210640000Y-108580000D03*
%TO.P,J1,3,Pin_3*%
%TO.N,unconnected-(J1-Pin_3-Pad3)*%
X208100000Y-108580000D03*
%TO.P,J1,4,Pin_4*%
%TO.N,Net-(J1-Pin_4)*%
X205560000Y-108580000D03*
%TD*%
D10*
%TO.P,LDR+,1,Pin_1*%
%TO.N,+3.3V*%
X183980000Y-126060000D03*
%TD*%
D14*
%TO.P,R2,1*%
%TO.N,Net-(U1-D34)*%
X156040000Y-123520000D03*
%TO.P,R2,2*%
%TO.N,GND*%
X153040000Y-123520000D03*
%TD*%
%TO.P,R1,1*%
%TO.N,GND*%
X163200000Y-123520000D03*
%TO.P,R1,2*%
%TO.N,Net-(LDRPin1-Pin_1)*%
X166200000Y-123520000D03*
%TD*%
D10*
%TO.P,Batt1,1,Pin_1*%
%TO.N,+BATT*%
X214460000Y-128600000D03*
D15*
%TO.P,Batt1,2,Pin_2*%
%TO.N,GND*%
X214460000Y-126060000D03*
%TD*%
D10*
%TO.P,Switch,1,Pin_1*%
%TO.N,+5V*%
X145880000Y-133680000D03*
D15*
%TO.P,Switch,2,Pin_2*%
%TO.N,Net-(U1-VIN)*%
X143340000Y-133680000D03*
%TD*%
D10*
%TO.P,pushButton1,1,Pin_1*%
%TO.N,+3.3V*%
X160350000Y-113360000D03*
D15*
%TO.P,pushButton1,2,Pin_2*%
%TO.N,Net-(U1-D34)*%
X162890000Y-113360000D03*
%TD*%
D10*
%TO.P,MicroUSB1,1,Pin_1*%
%TO.N,Net-(MicroUSB1-Pin_1)*%
X214460000Y-120980000D03*
D15*
%TO.P,MicroUSB1,2,Pin_2*%
%TO.N,Net-(MicroUSB1-Pin_2)*%
X214460000Y-118440000D03*
%TD*%
D16*
%TO.P,Brd1,1,GND*%
%TO.N,GND*%
X157680000Y-84980000D03*
%TO.P,Brd1,2,VCC*%
%TO.N,+3.3V*%
X160220000Y-84980000D03*
%TO.P,Brd1,3,SCL*%
%TO.N,/scl*%
X162760000Y-84980000D03*
%TO.P,Brd1,4,SDA*%
%TO.N,/sda*%
X165300000Y-84980000D03*
%TD*%
D17*
%TO.P,U1,1,3V3*%
%TO.N,+3.3V*%
X133180000Y-123520000D03*
D18*
%TO.P,U1,2,GND*%
%TO.N,GND*%
X133180000Y-120980000D03*
%TO.P,U1,3,D15*%
%TO.N,unconnected-(U1-D15-Pad3)*%
X133180000Y-118440000D03*
%TO.P,U1,4,D2*%
%TO.N,unconnected-(U1-D2-Pad4)*%
X133180000Y-115900000D03*
%TO.P,U1,5,D4*%
%TO.N,/d4*%
X133180000Y-113360000D03*
%TO.P,U1,6,RX2*%
%TO.N,unconnected-(U1-RX2-Pad6)*%
X133180000Y-110820000D03*
%TO.P,U1,7,TX2*%
%TO.N,unconnected-(U1-TX2-Pad7)*%
X133180000Y-108280000D03*
%TO.P,U1,8,D5*%
%TO.N,unconnected-(U1-D5-Pad8)*%
X133180000Y-105740000D03*
%TO.P,U1,9,D18*%
%TO.N,unconnected-(U1-D18-Pad9)*%
X133180000Y-103200000D03*
%TO.P,U1,10,D19*%
%TO.N,unconnected-(U1-D19-Pad10)*%
X133180000Y-100660000D03*
%TO.P,U1,11,D21*%
%TO.N,/sda*%
X133180000Y-98120000D03*
%TO.P,U1,12,RX0*%
%TO.N,unconnected-(U1-RX0-Pad12)*%
X133180000Y-95580000D03*
%TO.P,U1,13,TX0*%
%TO.N,unconnected-(U1-TX0-Pad13)*%
X133180000Y-93040000D03*
%TO.P,U1,14,D22*%
%TO.N,/scl*%
X133180000Y-90500000D03*
%TO.P,U1,15,D23*%
%TO.N,unconnected-(U1-D23-Pad15)*%
X133180000Y-87960000D03*
%TO.P,U1,16,EN*%
%TO.N,unconnected-(U1-EN-Pad16)*%
X107780000Y-87960000D03*
%TO.P,U1,17,VP*%
%TO.N,unconnected-(U1-VP-Pad17)*%
X107780000Y-90500000D03*
%TO.P,U1,18,VN*%
%TO.N,unconnected-(U1-VN-Pad18)*%
X107780000Y-93040000D03*
%TO.P,U1,19,D34*%
%TO.N,Net-(U1-D34)*%
X107780000Y-95580000D03*
%TO.P,U1,20,D35*%
%TO.N,Net-(J1-Pin_4)*%
X107780000Y-98120000D03*
%TO.P,U1,21,D32*%
%TO.N,Net-(LDRPin1-Pin_1)*%
X107780000Y-100660000D03*
%TO.P,U1,22,D33*%
%TO.N,unconnected-(U1-D33-Pad22)*%
X107780000Y-103200000D03*
%TO.P,U1,23,D25*%
%TO.N,unconnected-(U1-D25-Pad23)*%
X107780000Y-105740000D03*
%TO.P,U1,24,D26*%
%TO.N,unconnected-(U1-D26-Pad24)*%
X107780000Y-108280000D03*
%TO.P,U1,25,D27*%
%TO.N,unconnected-(U1-D27-Pad25)*%
X107780000Y-110820000D03*
%TO.P,U1,26,D14*%
%TO.N,unconnected-(U1-D14-Pad26)*%
X107780000Y-113360000D03*
%TO.P,U1,27,D12*%
%TO.N,unconnected-(U1-D12-Pad27)*%
X107780000Y-115900000D03*
%TO.P,U1,28,D13*%
%TO.N,unconnected-(U1-D13-Pad28)*%
X107780000Y-118440000D03*
%TO.P,U1,29,GND*%
%TO.N,GND*%
X107780000Y-120980000D03*
%TO.P,U1,30,VIN*%
%TO.N,Net-(U1-VIN)*%
X107780000Y-123520000D03*
%TD*%
D19*
%TO.N,GND*%
X207530610Y-113360000D02*
X210640000Y-110250610D01*
X187790000Y-129870000D02*
X203030000Y-129870000D01*
X206840000Y-133680000D02*
X219540000Y-133680000D01*
X196210606Y-105270606D02*
X204300000Y-113360000D01*
X182710000Y-129870000D02*
X187790000Y-129870000D01*
X157880000Y-80340000D02*
X189060000Y-80340000D01*
X168740000Y-120980000D02*
X176360000Y-120980000D01*
X196210606Y-105270606D02*
X148889394Y-105270606D01*
X204300000Y-113360000D02*
X207530610Y-113360000D01*
X214460000Y-100660000D02*
X211920000Y-100660000D01*
X210640000Y-101940000D02*
X210640000Y-108580000D01*
X181440000Y-123520000D02*
X181440000Y-128600000D01*
X189060000Y-80340000D02*
X191610000Y-82890000D01*
X196210606Y-92570606D02*
X191610000Y-87970000D01*
X219540000Y-105740000D02*
X214460000Y-100660000D01*
X203030000Y-129870000D02*
X206840000Y-133680000D01*
X176360000Y-120980000D02*
X178900000Y-123520000D01*
X148889394Y-107810606D02*
X135720000Y-120980000D01*
X163200000Y-126520000D02*
X163200000Y-123520000D01*
X163200000Y-123520000D02*
X163200000Y-121440000D01*
X161120000Y-128600000D02*
X163200000Y-126520000D01*
X161120000Y-128600000D02*
X153500000Y-128600000D01*
X210650000Y-124790000D02*
X211920000Y-126060000D01*
X211920000Y-126060000D02*
X214460000Y-126060000D01*
X211920000Y-100660000D02*
X210640000Y-101940000D01*
X157680000Y-84980000D02*
X157680000Y-80540000D01*
X178900000Y-123520000D02*
X181440000Y-123520000D01*
X181440000Y-128600000D02*
X182710000Y-129870000D01*
X163200000Y-121440000D02*
X166200000Y-118440000D01*
X191610000Y-82890000D02*
X191610000Y-87960000D01*
X157680000Y-80540000D02*
X157880000Y-80340000D01*
X153500000Y-128600000D02*
X153040000Y-128140000D01*
X148889394Y-105270606D02*
X148889394Y-107810606D01*
X166200000Y-118440000D02*
X168740000Y-120980000D01*
X196210606Y-105270606D02*
X196210606Y-92570606D01*
X219540000Y-133680000D02*
X219540000Y-123520000D01*
X153040000Y-128140000D02*
X153040000Y-123520000D01*
X219540000Y-123520000D02*
X219540000Y-105740000D01*
X187790000Y-124790000D02*
X210650000Y-124790000D01*
X135720000Y-120980000D02*
X133180000Y-120980000D01*
X210640000Y-110250610D02*
X210640000Y-108580000D01*
X191610000Y-87970000D02*
X191610000Y-87960000D01*
%TO.N,+BATT*%
X208110000Y-127330000D02*
X209380000Y-128600000D01*
X187790000Y-127330000D02*
X208110000Y-127330000D01*
X209380000Y-128600000D02*
X214460000Y-128600000D01*
%TO.N,+5V*%
X186520000Y-133680000D02*
X187790000Y-132410000D01*
X145880000Y-133680000D02*
X186520000Y-133680000D01*
D20*
%TO.N,/sda*%
X165300000Y-93940000D02*
X161120000Y-98120000D01*
X161120000Y-98120000D02*
X133180000Y-98120000D01*
X165300000Y-84980000D02*
X165300000Y-93940000D01*
%TO.N,/scl*%
X161120000Y-90500000D02*
X133180000Y-90500000D01*
X162760000Y-88860000D02*
X161120000Y-90500000D01*
X162760000Y-84980000D02*
X162760000Y-88860000D01*
D19*
%TO.N,+3.3V*%
X135720000Y-80340000D02*
X125560000Y-80340000D01*
X183980000Y-126060000D02*
X183980000Y-118440000D01*
X181440000Y-82880000D02*
X186520000Y-87960000D01*
X159320000Y-87960000D02*
X140800000Y-87960000D01*
X140800000Y-85420000D02*
X135720000Y-80340000D01*
X213180000Y-108580000D02*
X213180000Y-110895000D01*
X186520000Y-87960000D02*
X186530000Y-87960000D01*
X128100000Y-121056332D02*
X130563668Y-123520000D01*
X143340000Y-118440000D02*
X138260000Y-123520000D01*
X160220000Y-84980000D02*
X160220000Y-87060000D01*
X128100000Y-91229240D02*
X128100000Y-121056332D01*
X181440000Y-110820000D02*
X186520000Y-115900000D01*
X138260000Y-123520000D02*
X133180000Y-123520000D01*
X129659240Y-81880000D02*
X130040000Y-82260760D01*
X191600000Y-108280000D02*
X186520000Y-108280000D01*
X160220000Y-84980000D02*
X160220000Y-83780000D01*
X160350000Y-113360000D02*
X160350000Y-111590000D01*
X126540760Y-89670000D02*
X128100000Y-91229240D01*
X199220000Y-115900000D02*
X191600000Y-108280000D01*
X140800000Y-87960000D02*
X140800000Y-85420000D01*
X161120000Y-82880000D02*
X181440000Y-82880000D01*
X160350000Y-113360000D02*
X158580000Y-113360000D01*
X125560000Y-81880000D02*
X129659240Y-81880000D01*
X130563668Y-123520000D02*
X133180000Y-123520000D01*
X160220000Y-87060000D02*
X159320000Y-87960000D01*
X158580000Y-113360000D02*
X153500000Y-118440000D01*
X153500000Y-118440000D02*
X143340000Y-118440000D01*
X129659240Y-89670000D02*
X126540760Y-89670000D01*
X160220000Y-83780000D02*
X161120000Y-82880000D01*
X183980000Y-118440000D02*
X186520000Y-115900000D01*
X186520000Y-108280000D02*
X186520000Y-115900000D01*
X160350000Y-111590000D02*
X161120000Y-110820000D01*
X208175000Y-115900000D02*
X199220000Y-115900000D01*
X130040000Y-89289240D02*
X129659240Y-89670000D01*
X130040000Y-82260760D02*
X130040000Y-89289240D01*
X213180000Y-110895000D02*
X208175000Y-115900000D01*
X125560000Y-80340000D02*
X125560000Y-81880000D01*
X161120000Y-110820000D02*
X181440000Y-110820000D01*
D20*
%TO.N,/d4*%
X138260000Y-108280000D02*
X138260000Y-113360000D01*
X183980000Y-100660000D02*
X145880000Y-100660000D01*
X145880000Y-100660000D02*
X138260000Y-108280000D01*
X138260000Y-113360000D02*
X133180000Y-113360000D01*
X189070000Y-87960000D02*
X189070000Y-95570000D01*
X189070000Y-95570000D02*
X183980000Y-100660000D01*
D21*
%TO.N,Net-(MicroUSB1-Pin_1)*%
X213190000Y-122250000D02*
X214460000Y-120980000D01*
X187790000Y-122250000D02*
X213190000Y-122250000D01*
%TO.N,Net-(MicroUSB1-Pin_2)*%
X187790000Y-119710000D02*
X189060000Y-118440000D01*
X189060000Y-118440000D02*
X214460000Y-118440000D01*
%TO.N,Net-(U1-VIN)*%
X128100000Y-133680000D02*
X117940000Y-123520000D01*
X143340000Y-133680000D02*
X128100000Y-133680000D01*
X117940000Y-123520000D02*
X107780000Y-123520000D01*
D20*
%TO.N,Net-(LDRPin1-Pin_1)*%
X123020000Y-124790000D02*
X126830000Y-128600000D01*
X166200000Y-128600000D02*
X166200000Y-123520000D01*
X126830000Y-128600000D02*
X145880000Y-128600000D01*
X145880000Y-128600000D02*
X148420000Y-131140000D01*
X163660000Y-131140000D02*
X166200000Y-128600000D01*
X168740000Y-126060000D02*
X166200000Y-123520000D01*
X120480000Y-98120000D02*
X123020000Y-100660000D01*
X148420000Y-131140000D02*
X163660000Y-131140000D01*
X115400000Y-98120000D02*
X120480000Y-98120000D01*
X123020000Y-100660000D02*
X123020000Y-124790000D01*
X176360000Y-126060000D02*
X168740000Y-126060000D01*
X112860000Y-100660000D02*
X115400000Y-98120000D01*
X107780000Y-100660000D02*
X112860000Y-100660000D01*
%TO.N,Net-(U1-D34)*%
X158580000Y-118440000D02*
X161120000Y-118440000D01*
X162890000Y-116670000D02*
X162890000Y-113360000D01*
X145880000Y-120980000D02*
X140800000Y-126060000D01*
X156040000Y-120980000D02*
X145880000Y-120980000D01*
X120480000Y-93040000D02*
X115400000Y-93040000D01*
X156040000Y-123520000D02*
X156040000Y-120980000D01*
X161120000Y-118440000D02*
X162890000Y-116670000D01*
X128100000Y-126060000D02*
X125560000Y-123520000D01*
X115400000Y-93040000D02*
X112860000Y-95580000D01*
X125560000Y-123520000D02*
X125560000Y-98120000D01*
X140800000Y-126060000D02*
X128100000Y-126060000D01*
X125560000Y-98120000D02*
X120480000Y-93040000D01*
X112860000Y-95580000D02*
X107780000Y-95580000D01*
X156040000Y-120980000D02*
X158580000Y-118440000D01*
%TO.N,Net-(J1-Pin_4)*%
X105240000Y-98120000D02*
X107780000Y-98120000D01*
X105240000Y-77800000D02*
X105240000Y-98120000D01*
X205560000Y-79060000D02*
X205560000Y-108580000D01*
X105240000Y-77800000D02*
X204300000Y-77800000D01*
X204300000Y-77800000D02*
X205560000Y-79060000D01*
%TD*%
%TA.AperFunction,Conductor*%
%TO.N,GND*%
G36*
X104580220Y-76295185D02*
G01*
X104625975Y-76347989D01*
X104635919Y-76417147D01*
X104606894Y-76480703D01*
X104562993Y-76513055D01*
X104547274Y-76519949D01*
X104547266Y-76519954D01*
X104511772Y-76543143D01*
X104499016Y-76551477D01*
X104494620Y-76554097D01*
X104443932Y-76581528D01*
X104398439Y-76616935D01*
X104394270Y-76619911D01*
X104346033Y-76651426D01*
X104346031Y-76651428D01*
X104303627Y-76690463D01*
X104299717Y-76693774D01*
X104254235Y-76729175D01*
X104215200Y-76771577D01*
X104211577Y-76775200D01*
X104169175Y-76814235D01*
X104133774Y-76859717D01*
X104130463Y-76863627D01*
X104091428Y-76906031D01*
X104091426Y-76906033D01*
X104059911Y-76954270D01*
X104056935Y-76958439D01*
X104021528Y-77003932D01*
X103994097Y-77054620D01*
X103991474Y-77059022D01*
X103959954Y-77107266D01*
X103959948Y-77107276D01*
X103936795Y-77160057D01*
X103934545Y-77164660D01*
X103907119Y-77215340D01*
X103907113Y-77215354D01*
X103888402Y-77269858D01*
X103886539Y-77274632D01*
X103863392Y-77327403D01*
X103863389Y-77327414D01*
X103849242Y-77383276D01*
X103847780Y-77388187D01*
X103829067Y-77442698D01*
X103829066Y-77442702D01*
X103819578Y-77499555D01*
X103818526Y-77504570D01*
X103804380Y-77560433D01*
X103799622Y-77617861D01*
X103798988Y-77622948D01*
X103789500Y-77679808D01*
X103789500Y-98240190D01*
X103798988Y-98297050D01*
X103799620Y-98302124D01*
X103802874Y-98341397D01*
X103804380Y-98359566D01*
X103818526Y-98415427D01*
X103819578Y-98420443D01*
X103829065Y-98477295D01*
X103829066Y-98477297D01*
X103847777Y-98531802D01*
X103849239Y-98536715D01*
X103863386Y-98592580D01*
X103863389Y-98592588D01*
X103886542Y-98645374D01*
X103888405Y-98650149D01*
X103907116Y-98704651D01*
X103907122Y-98704666D01*
X103934544Y-98755335D01*
X103936796Y-98759941D01*
X103959951Y-98812728D01*
X103991474Y-98860977D01*
X103994098Y-98865381D01*
X104021529Y-98916068D01*
X104056927Y-98961548D01*
X104059905Y-98965720D01*
X104091430Y-99013971D01*
X104091431Y-99013972D01*
X104130466Y-99056376D01*
X104133779Y-99060287D01*
X104169174Y-99105763D01*
X104211576Y-99144798D01*
X104215200Y-99148422D01*
X104232173Y-99166858D01*
X104254236Y-99190825D01*
X104278230Y-99209500D01*
X104299718Y-99226225D01*
X104303628Y-99229536D01*
X104346031Y-99268571D01*
X104394278Y-99300093D01*
X104398438Y-99303062D01*
X104414663Y-99315690D01*
X104443930Y-99338470D01*
X104443934Y-99338473D01*
X104494620Y-99365902D01*
X104499024Y-99368527D01*
X104547272Y-99400049D01*
X104600057Y-99423202D01*
X104604653Y-99425449D01*
X104655333Y-99452877D01*
X104655341Y-99452880D01*
X104655344Y-99452882D01*
X104655347Y-99452883D01*
X104709850Y-99471594D01*
X104714626Y-99473457D01*
X104758116Y-99492534D01*
X104767409Y-99496610D01*
X104823299Y-99510762D01*
X104828186Y-99512218D01*
X104882703Y-99530934D01*
X104939554Y-99540420D01*
X104944550Y-99541467D01*
X105000437Y-99555620D01*
X105051588Y-99559857D01*
X105057866Y-99560378D01*
X105062954Y-99561012D01*
X105071212Y-99562390D01*
X105119808Y-99570500D01*
X105180010Y-99570500D01*
X105886614Y-99570500D01*
X105953653Y-99590185D01*
X105999408Y-99642989D01*
X106009352Y-99712147D01*
X105995446Y-99753926D01*
X105980018Y-99782181D01*
X105955634Y-99826836D01*
X105855628Y-100094962D01*
X105794804Y-100374566D01*
X105774390Y-100659998D01*
X105774390Y-100660001D01*
X105794804Y-100945433D01*
X105855628Y-101225037D01*
X105955635Y-101493166D01*
X106092770Y-101744309D01*
X106092771Y-101744310D01*
X106092774Y-101744315D01*
X106167796Y-101844533D01*
X106176148Y-101855690D01*
X106200564Y-101921155D01*
X106185712Y-101989428D01*
X106176150Y-102004306D01*
X106147139Y-102043061D01*
X106092770Y-102115690D01*
X105955635Y-102366833D01*
X105855628Y-102634962D01*
X105794804Y-102914566D01*
X105774390Y-103199998D01*
X105774390Y-103200001D01*
X105794804Y-103485433D01*
X105855628Y-103765037D01*
X105955635Y-104033166D01*
X106092770Y-104284309D01*
X106176148Y-104395690D01*
X106200564Y-104461155D01*
X106185712Y-104529428D01*
X106176148Y-104544310D01*
X106092770Y-104655690D01*
X105955635Y-104906833D01*
X105855628Y-105174962D01*
X105794804Y-105454566D01*
X105774390Y-105739998D01*
X105774390Y-105740001D01*
X105794804Y-106025433D01*
X105855628Y-106305037D01*
X105955635Y-106573166D01*
X106092770Y-106824309D01*
X106092771Y-106824310D01*
X106092774Y-106824315D01*
X106155981Y-106908750D01*
X106176148Y-106935690D01*
X106200564Y-107001155D01*
X106185712Y-107069428D01*
X106176148Y-107084310D01*
X106092770Y-107195690D01*
X105955635Y-107446833D01*
X105855628Y-107714962D01*
X105794804Y-107994566D01*
X105774390Y-108279998D01*
X105774390Y-108280001D01*
X105794804Y-108565433D01*
X105855628Y-108845037D01*
X105855630Y-108845043D01*
X105855631Y-108845046D01*
X105955633Y-109113161D01*
X105955635Y-109113166D01*
X106092770Y-109364309D01*
X106092771Y-109364310D01*
X106092774Y-109364315D01*
X106176147Y-109475689D01*
X106176148Y-109475690D01*
X106200564Y-109541155D01*
X106185712Y-109609428D01*
X106176150Y-109624306D01*
X106157432Y-109649311D01*
X106092770Y-109735690D01*
X105955635Y-109986833D01*
X105855628Y-110254962D01*
X105794804Y-110534566D01*
X105774390Y-110819998D01*
X105774390Y-110820001D01*
X105794804Y-111105433D01*
X105855628Y-111385037D01*
X105855630Y-111385043D01*
X105855631Y-111385046D01*
X105953196Y-111646628D01*
X105955635Y-111653166D01*
X106092770Y-111904309D01*
X106092771Y-111904310D01*
X106092774Y-111904315D01*
X106176147Y-112015689D01*
X106176148Y-112015690D01*
X106200564Y-112081155D01*
X106185712Y-112149428D01*
X106176148Y-112164310D01*
X106092770Y-112275690D01*
X105955635Y-112526833D01*
X105855628Y-112794962D01*
X105794804Y-113074566D01*
X105774390Y-113359998D01*
X105774390Y-113360001D01*
X105794804Y-113645433D01*
X105855628Y-113925037D01*
X105855630Y-113925043D01*
X105855631Y-113925046D01*
X105932334Y-114130694D01*
X105955635Y-114193166D01*
X106092770Y-114444309D01*
X106092771Y-114444310D01*
X106092774Y-114444315D01*
X106173021Y-114551513D01*
X106176148Y-114555690D01*
X106200564Y-114621155D01*
X106185712Y-114689428D01*
X106176150Y-114704306D01*
X106151967Y-114736612D01*
X106092770Y-114815690D01*
X105955635Y-115066833D01*
X105855628Y-115334962D01*
X105794804Y-115614566D01*
X105774390Y-115899998D01*
X105774390Y-115900001D01*
X105794804Y-116185433D01*
X105855628Y-116465037D01*
X105855630Y-116465043D01*
X105855631Y-116465046D01*
X105939348Y-116689500D01*
X105955635Y-116733166D01*
X106092770Y-116984309D01*
X106092771Y-116984310D01*
X106092774Y-116984315D01*
X106176147Y-117095689D01*
X106176148Y-117095690D01*
X106200564Y-117161155D01*
X106185712Y-117229428D01*
X106176148Y-117244310D01*
X106092770Y-117355690D01*
X105955635Y-117606833D01*
X105855628Y-117874962D01*
X105794804Y-118154566D01*
X105774390Y-118439998D01*
X105774390Y-118440001D01*
X105794804Y-118725433D01*
X105855628Y-119005037D01*
X105855630Y-119005043D01*
X105855631Y-119005046D01*
X105919028Y-119175020D01*
X105955635Y-119273166D01*
X106092770Y-119524309D01*
X106092775Y-119524317D01*
X106264254Y-119753387D01*
X106264270Y-119753405D01*
X106466594Y-119955729D01*
X106466612Y-119955745D01*
X106695682Y-120127224D01*
X106695690Y-120127229D01*
X106946833Y-120264364D01*
X106946832Y-120264364D01*
X106946836Y-120264365D01*
X106946839Y-120264367D01*
X107214954Y-120364369D01*
X107214960Y-120364370D01*
X107214962Y-120364371D01*
X107494566Y-120425195D01*
X107494568Y-120425195D01*
X107494572Y-120425196D01*
X107748220Y-120443337D01*
X107779999Y-120445610D01*
X107780000Y-120445610D01*
X107780001Y-120445610D01*
X107808595Y-120443564D01*
X108065428Y-120425196D01*
X108139922Y-120408991D01*
X108345037Y-120364371D01*
X108345037Y-120364370D01*
X108345046Y-120364369D01*
X108613161Y-120264367D01*
X108864315Y-120127226D01*
X109093395Y-119955739D01*
X109295739Y-119753395D01*
X109467226Y-119524315D01*
X109604367Y-119273161D01*
X109704369Y-119005046D01*
X109765196Y-118725428D01*
X109785610Y-118440000D01*
X109765196Y-118154572D01*
X109715993Y-117928390D01*
X109704371Y-117874962D01*
X109704370Y-117874960D01*
X109704369Y-117874954D01*
X109604367Y-117606839D01*
X109567179Y-117538735D01*
X109467229Y-117355690D01*
X109467228Y-117355689D01*
X109467226Y-117355685D01*
X109383849Y-117244307D01*
X109359434Y-117178847D01*
X109374285Y-117110574D01*
X109383841Y-117095703D01*
X109467226Y-116984315D01*
X109604367Y-116733161D01*
X109704369Y-116465046D01*
X109765196Y-116185428D01*
X109785610Y-115900000D01*
X109765196Y-115614572D01*
X109704369Y-115334954D01*
X109604367Y-115066839D01*
X109564554Y-114993928D01*
X109467229Y-114815690D01*
X109467228Y-114815689D01*
X109467226Y-114815685D01*
X109383849Y-114704307D01*
X109359434Y-114638847D01*
X109374285Y-114570574D01*
X109383841Y-114555703D01*
X109467226Y-114444315D01*
X109604367Y-114193161D01*
X109704369Y-113925046D01*
X109724483Y-113832582D01*
X109765195Y-113645433D01*
X109765195Y-113645432D01*
X109765196Y-113645428D01*
X109785610Y-113360000D01*
X109765196Y-113074572D01*
X109704369Y-112794954D01*
X109604367Y-112526839D01*
X109584352Y-112490185D01*
X109467229Y-112275690D01*
X109467228Y-112275689D01*
X109467226Y-112275685D01*
X109383849Y-112164307D01*
X109359434Y-112098847D01*
X109374285Y-112030574D01*
X109383841Y-112015703D01*
X109467226Y-111904315D01*
X109604367Y-111653161D01*
X109704369Y-111385046D01*
X109765196Y-111105428D01*
X109785610Y-110820000D01*
X109765196Y-110534572D01*
X109747124Y-110451498D01*
X109704371Y-110254962D01*
X109704370Y-110254960D01*
X109704369Y-110254954D01*
X109604367Y-109986839D01*
X109584352Y-109950185D01*
X109467229Y-109735690D01*
X109467228Y-109735689D01*
X109467226Y-109735685D01*
X109383849Y-109624307D01*
X109359434Y-109558847D01*
X109374285Y-109490574D01*
X109383841Y-109475703D01*
X109467226Y-109364315D01*
X109604367Y-109113161D01*
X109704369Y-108845046D01*
X109765196Y-108565428D01*
X109785610Y-108280000D01*
X109765196Y-107994572D01*
X109756152Y-107952999D01*
X109704371Y-107714962D01*
X109704370Y-107714960D01*
X109704369Y-107714954D01*
X109604367Y-107446839D01*
X109597498Y-107434260D01*
X109467229Y-107195690D01*
X109467228Y-107195689D01*
X109467226Y-107195685D01*
X109383849Y-107084307D01*
X109359434Y-107018847D01*
X109374285Y-106950574D01*
X109383841Y-106935703D01*
X109467226Y-106824315D01*
X109604367Y-106573161D01*
X109704369Y-106305046D01*
X109765196Y-106025428D01*
X109785610Y-105740000D01*
X109765196Y-105454572D01*
X109704369Y-105174954D01*
X109604367Y-104906839D01*
X109467226Y-104655685D01*
X109383849Y-104544307D01*
X109359434Y-104478847D01*
X109374285Y-104410574D01*
X109383841Y-104395703D01*
X109467226Y-104284315D01*
X109604367Y-104033161D01*
X109704369Y-103765046D01*
X109765196Y-103485428D01*
X109785610Y-103200000D01*
X109765196Y-102914572D01*
X109704369Y-102634954D01*
X109604367Y-102366839D01*
X109564553Y-102293926D01*
X109549702Y-102225655D01*
X109574118Y-102160190D01*
X109630052Y-102118318D01*
X109673386Y-102110500D01*
X112766090Y-102110500D01*
X112773762Y-102110975D01*
X112799853Y-102114228D01*
X112889986Y-102110500D01*
X112919990Y-102110500D01*
X112949891Y-102108022D01*
X113040031Y-102104294D01*
X113065761Y-102098898D01*
X113073361Y-102097790D01*
X113099563Y-102095620D01*
X113099566Y-102095619D01*
X113099568Y-102095619D01*
X113187001Y-102073477D01*
X113275299Y-102054964D01*
X113299794Y-102045404D01*
X113307102Y-102043063D01*
X113332591Y-102036610D01*
X113415194Y-102000376D01*
X113499238Y-101967583D01*
X113521831Y-101954118D01*
X113528650Y-101950609D01*
X113552728Y-101940049D01*
X113628252Y-101890705D01*
X113705740Y-101844533D01*
X113725803Y-101827540D01*
X113731951Y-101822955D01*
X113753969Y-101808571D01*
X113820340Y-101747472D01*
X113824068Y-101744315D01*
X113843235Y-101728082D01*
X113864458Y-101706858D01*
X113930825Y-101645764D01*
X113946978Y-101625008D01*
X113952052Y-101619263D01*
X115964497Y-99606819D01*
X116025820Y-99573334D01*
X116052178Y-99570500D01*
X119827821Y-99570500D01*
X119894860Y-99590185D01*
X119915502Y-99606819D01*
X121533181Y-101224497D01*
X121566666Y-101285820D01*
X121569500Y-101312178D01*
X121569500Y-124374557D01*
X121549815Y-124441596D01*
X121497011Y-124487351D01*
X121427853Y-124497295D01*
X121364297Y-124468270D01*
X121357819Y-124462238D01*
X120347747Y-123452166D01*
X119200929Y-122305348D01*
X119156448Y-122257409D01*
X119133988Y-122233202D01*
X119133987Y-122233200D01*
X119057020Y-122171821D01*
X118982397Y-122107602D01*
X118957506Y-122091961D01*
X118951832Y-122087936D01*
X118928856Y-122069613D01*
X118843602Y-122020392D01*
X118760251Y-121968019D01*
X118760241Y-121968014D01*
X118733304Y-121956261D01*
X118727094Y-121953126D01*
X118701645Y-121938432D01*
X118701641Y-121938431D01*
X118609999Y-121902464D01*
X118519776Y-121863100D01*
X118519768Y-121863098D01*
X118491382Y-121855491D01*
X118484777Y-121853317D01*
X118457420Y-121842581D01*
X118442883Y-121839263D01*
X118361430Y-121820671D01*
X118266349Y-121795194D01*
X118242674Y-121792527D01*
X118237140Y-121791903D01*
X118230285Y-121790738D01*
X118201629Y-121784197D01*
X118201624Y-121784196D01*
X118103460Y-121776841D01*
X118005635Y-121765818D01*
X117907269Y-121769500D01*
X108780087Y-121769500D01*
X108720660Y-121754332D01*
X108613166Y-121695635D01*
X108613167Y-121695635D01*
X108443032Y-121632178D01*
X108345046Y-121595631D01*
X108345043Y-121595630D01*
X108345037Y-121595628D01*
X108065433Y-121534804D01*
X107780001Y-121514390D01*
X107779999Y-121514390D01*
X107494566Y-121534804D01*
X107214962Y-121595628D01*
X106946833Y-121695635D01*
X106695690Y-121832770D01*
X106695682Y-121832775D01*
X106466612Y-122004254D01*
X106466594Y-122004270D01*
X106264270Y-122206594D01*
X106264254Y-122206612D01*
X106092775Y-122435682D01*
X106092770Y-122435690D01*
X105955635Y-122686833D01*
X105855628Y-122954962D01*
X105794804Y-123234566D01*
X105774390Y-123519998D01*
X105774390Y-123520001D01*
X105794804Y-123805433D01*
X105855628Y-124085037D01*
X105855630Y-124085043D01*
X105855631Y-124085046D01*
X105906009Y-124220113D01*
X105955635Y-124353166D01*
X106092770Y-124604309D01*
X106092775Y-124604317D01*
X106264254Y-124833387D01*
X106264270Y-124833405D01*
X106466594Y-125035729D01*
X106466612Y-125035745D01*
X106695682Y-125207224D01*
X106695690Y-125207229D01*
X106946833Y-125344364D01*
X106946832Y-125344364D01*
X106946836Y-125344365D01*
X106946839Y-125344367D01*
X107214954Y-125444369D01*
X107214960Y-125444370D01*
X107214962Y-125444371D01*
X107494566Y-125505195D01*
X107494568Y-125505195D01*
X107494572Y-125505196D01*
X107748220Y-125523337D01*
X107779999Y-125525610D01*
X107780000Y-125525610D01*
X107780001Y-125525610D01*
X107808595Y-125523564D01*
X108065428Y-125505196D01*
X108345046Y-125444369D01*
X108613161Y-125344367D01*
X108720660Y-125285668D01*
X108780087Y-125270500D01*
X117163557Y-125270500D01*
X117230596Y-125290185D01*
X117251238Y-125306819D01*
X126839070Y-134894651D01*
X126906017Y-134966804D01*
X126982979Y-135028178D01*
X127057600Y-135092396D01*
X127057602Y-135092397D01*
X127057603Y-135092398D01*
X127082497Y-135108040D01*
X127088167Y-135112064D01*
X127111144Y-135130387D01*
X127154046Y-135155156D01*
X127196385Y-135179600D01*
X127279753Y-135231984D01*
X127306704Y-135243742D01*
X127312907Y-135246874D01*
X127338357Y-135261568D01*
X127429984Y-135297528D01*
X127520226Y-135336901D01*
X127548620Y-135344508D01*
X127555218Y-135346679D01*
X127582584Y-135357420D01*
X127582590Y-135357421D01*
X127582592Y-135357422D01*
X127636365Y-135369695D01*
X127678562Y-135379326D01*
X127773650Y-135404805D01*
X127802856Y-135408095D01*
X127809701Y-135409258D01*
X127838370Y-135415802D01*
X127838375Y-135415802D01*
X127838378Y-135415803D01*
X127936539Y-135423158D01*
X128034364Y-135434181D01*
X128132731Y-135430500D01*
X142715650Y-135430500D01*
X142758982Y-135438318D01*
X142787154Y-135448825D01*
X142817322Y-135460077D01*
X143075974Y-135516343D01*
X143319660Y-135533772D01*
X143339999Y-135535227D01*
X143340000Y-135535227D01*
X143340001Y-135535227D01*
X143358885Y-135533876D01*
X143604026Y-135516343D01*
X143862678Y-135460077D01*
X144110689Y-135367574D01*
X144255103Y-135288716D01*
X144323374Y-135273865D01*
X144388839Y-135298281D01*
X144392891Y-135301447D01*
X144476593Y-135369698D01*
X144656951Y-135463909D01*
X144852582Y-135519886D01*
X144971963Y-135530500D01*
X144971964Y-135530499D01*
X144971965Y-135530500D01*
X144971966Y-135530500D01*
X145750280Y-135530499D01*
X146788036Y-135530499D01*
X146907418Y-135519886D01*
X147103049Y-135463909D01*
X147283407Y-135369698D01*
X147297266Y-135358397D01*
X147361661Y-135331289D01*
X147375626Y-135330500D01*
X186452707Y-135330500D01*
X186457573Y-135330691D01*
X186462052Y-135331043D01*
X186520000Y-135335604D01*
X186584853Y-135330500D01*
X186778994Y-135315221D01*
X187031610Y-135254573D01*
X187271628Y-135155154D01*
X187493140Y-135019412D01*
X187690689Y-134850689D01*
X187731367Y-134803059D01*
X187734638Y-134799520D01*
X188504106Y-134030052D01*
X188537977Y-134006019D01*
X188673721Y-133940650D01*
X188891982Y-133791842D01*
X189085627Y-133612166D01*
X189250329Y-133405636D01*
X189382410Y-133176864D01*
X189478920Y-132930963D01*
X189537701Y-132673424D01*
X189557442Y-132410000D01*
X189553522Y-132357697D01*
X189537701Y-132146577D01*
X189537701Y-132146575D01*
X189478922Y-131889046D01*
X189478920Y-131889037D01*
X189382410Y-131643136D01*
X189250329Y-131414364D01*
X189085627Y-131207834D01*
X189085626Y-131207833D01*
X189085623Y-131207829D01*
X188891982Y-131028158D01*
X188673721Y-130879350D01*
X188673717Y-130879348D01*
X188673714Y-130879346D01*
X188673713Y-130879345D01*
X188435721Y-130764736D01*
X188435723Y-130764736D01*
X188183294Y-130686871D01*
X188183288Y-130686869D01*
X187922088Y-130647500D01*
X187922081Y-130647500D01*
X187657919Y-130647500D01*
X187657911Y-130647500D01*
X187396711Y-130686869D01*
X187396705Y-130686871D01*
X187144277Y-130764736D01*
X186906286Y-130879345D01*
X186906285Y-130879346D01*
X186688017Y-131028158D01*
X186494376Y-131207829D01*
X186329671Y-131414364D01*
X186197593Y-131643129D01*
X186197589Y-131643137D01*
X186190816Y-131660394D01*
X186163071Y-131702767D01*
X185872657Y-131993182D01*
X185811337Y-132026666D01*
X185784978Y-132029500D01*
X165121179Y-132029500D01*
X165054140Y-132009815D01*
X165008385Y-131957011D01*
X164998441Y-131887853D01*
X165027466Y-131824297D01*
X165033498Y-131817819D01*
X165823158Y-131028158D01*
X167159267Y-129692047D01*
X167165012Y-129686975D01*
X167185764Y-129670825D01*
X167246870Y-129604445D01*
X167268077Y-129583239D01*
X167268076Y-129583241D01*
X167287461Y-129560351D01*
X167348571Y-129493969D01*
X167362952Y-129471954D01*
X167367541Y-129465800D01*
X167384533Y-129445740D01*
X167430701Y-129368259D01*
X167480049Y-129292728D01*
X167490615Y-129268636D01*
X167494125Y-129261819D01*
X167507582Y-129239238D01*
X167540371Y-129155207D01*
X167576610Y-129072591D01*
X167583068Y-129047087D01*
X167585404Y-129039797D01*
X167594964Y-129015299D01*
X167613477Y-128927001D01*
X167635620Y-128839563D01*
X167637790Y-128813361D01*
X167638898Y-128805761D01*
X167644294Y-128780031D01*
X167648022Y-128689891D01*
X167650500Y-128659990D01*
X167650500Y-128629986D01*
X167654228Y-128539853D01*
X167650975Y-128513762D01*
X167650500Y-128506090D01*
X167650500Y-127309956D01*
X167670185Y-127242917D01*
X167722989Y-127197162D01*
X167792147Y-127187218D01*
X167842321Y-127206147D01*
X167868038Y-127222949D01*
X167874204Y-127227547D01*
X167889283Y-127240318D01*
X167894260Y-127244533D01*
X167971740Y-127290701D01*
X168047272Y-127340049D01*
X168071353Y-127350611D01*
X168078181Y-127354126D01*
X168100762Y-127367582D01*
X168184792Y-127400371D01*
X168267409Y-127436610D01*
X168277148Y-127439076D01*
X168292892Y-127443064D01*
X168300216Y-127445410D01*
X168324701Y-127454964D01*
X168412998Y-127473477D01*
X168500437Y-127495620D01*
X168522973Y-127497487D01*
X168526628Y-127497790D01*
X168534238Y-127498899D01*
X168542547Y-127500640D01*
X168559969Y-127504294D01*
X168650108Y-127508022D01*
X168680010Y-127510500D01*
X168680012Y-127510500D01*
X168710014Y-127510500D01*
X168800147Y-127514228D01*
X168826237Y-127510975D01*
X168833910Y-127510500D01*
X174649813Y-127510500D01*
X174716852Y-127530185D01*
X174745915Y-127556139D01*
X174798890Y-127621109D01*
X174885788Y-127691964D01*
X174956593Y-127749698D01*
X175136951Y-127843909D01*
X175332582Y-127899886D01*
X175451963Y-127910500D01*
X175451964Y-127910499D01*
X175451965Y-127910500D01*
X175451966Y-127910500D01*
X176230280Y-127910499D01*
X177268036Y-127910499D01*
X177387418Y-127899886D01*
X177583049Y-127843909D01*
X177763407Y-127749698D01*
X177921109Y-127621109D01*
X178049698Y-127463407D01*
X178143909Y-127283049D01*
X178199886Y-127087418D01*
X178210500Y-126968037D01*
X178210499Y-125151964D01*
X178199886Y-125032582D01*
X178143909Y-124836951D01*
X178049698Y-124656593D01*
X177985890Y-124578339D01*
X177921109Y-124498890D01*
X177763409Y-124370304D01*
X177763410Y-124370304D01*
X177763407Y-124370302D01*
X177583049Y-124276091D01*
X177583048Y-124276090D01*
X177583045Y-124276089D01*
X177465829Y-124242550D01*
X177387418Y-124220114D01*
X177387415Y-124220113D01*
X177387413Y-124220113D01*
X177296983Y-124212073D01*
X177268037Y-124209500D01*
X177268035Y-124209500D01*
X177268034Y-124209500D01*
X176489720Y-124209500D01*
X175451964Y-124209501D01*
X175422727Y-124212100D01*
X175332584Y-124220113D01*
X175136954Y-124276089D01*
X175046772Y-124323196D01*
X174956593Y-124370302D01*
X174956591Y-124370303D01*
X174956590Y-124370304D01*
X174798890Y-124498890D01*
X174745915Y-124563861D01*
X174688294Y-124603378D01*
X174649813Y-124609500D01*
X169392178Y-124609500D01*
X169325139Y-124589815D01*
X169304497Y-124573181D01*
X168011581Y-123280265D01*
X167978371Y-123220176D01*
X167925336Y-122987813D01*
X167925335Y-122987811D01*
X167925334Y-122987805D01*
X167826743Y-122736602D01*
X167691815Y-122502898D01*
X167523561Y-122291915D01*
X167523560Y-122291914D01*
X167523557Y-122291910D01*
X167325741Y-122108365D01*
X167268902Y-122069613D01*
X167102775Y-121956349D01*
X167102769Y-121956346D01*
X167102768Y-121956345D01*
X167102767Y-121956344D01*
X166859643Y-121839263D01*
X166859645Y-121839263D01*
X166601773Y-121759720D01*
X166601767Y-121759718D01*
X166334936Y-121719500D01*
X166334929Y-121719500D01*
X166065071Y-121719500D01*
X166065063Y-121719500D01*
X165798232Y-121759718D01*
X165798226Y-121759720D01*
X165540358Y-121839262D01*
X165297230Y-121956346D01*
X165074258Y-122108365D01*
X164876442Y-122291910D01*
X164708185Y-122502898D01*
X164573258Y-122736599D01*
X164573256Y-122736603D01*
X164474666Y-122987804D01*
X164474664Y-122987811D01*
X164414616Y-123250898D01*
X164394451Y-123519995D01*
X164394451Y-123520004D01*
X164414616Y-123789101D01*
X164474664Y-124052188D01*
X164474666Y-124052195D01*
X164573256Y-124303396D01*
X164573258Y-124303400D01*
X164708185Y-124537102D01*
X164722446Y-124554984D01*
X164748855Y-124619670D01*
X164749500Y-124632298D01*
X164749500Y-127947821D01*
X164729815Y-128014860D01*
X164713181Y-128035502D01*
X163095502Y-129653181D01*
X163034179Y-129686666D01*
X163007821Y-129689500D01*
X149072178Y-129689500D01*
X149005139Y-129669815D01*
X148984497Y-129653181D01*
X147991306Y-128659990D01*
X146972063Y-127640746D01*
X146966972Y-127634981D01*
X146950826Y-127614237D01*
X146950821Y-127614232D01*
X146884459Y-127553141D01*
X146863237Y-127531920D01*
X146857871Y-127527375D01*
X146840340Y-127512527D01*
X146773969Y-127451429D01*
X146773964Y-127451425D01*
X146751957Y-127437047D01*
X146745794Y-127432451D01*
X146725738Y-127415465D01*
X146648252Y-127369294D01*
X146645632Y-127367582D01*
X146572728Y-127319951D01*
X146572726Y-127319950D01*
X146572720Y-127319946D01*
X146548657Y-127309391D01*
X146541819Y-127305872D01*
X146519240Y-127292418D01*
X146519233Y-127292415D01*
X146435194Y-127259623D01*
X146352590Y-127223389D01*
X146327106Y-127216935D01*
X146319784Y-127214589D01*
X146295306Y-127205038D01*
X146295300Y-127205036D01*
X146251150Y-127195779D01*
X146207001Y-127186522D01*
X146177349Y-127179013D01*
X146119561Y-127164379D01*
X146093369Y-127162209D01*
X146085761Y-127161100D01*
X146060041Y-127155707D01*
X146060028Y-127155705D01*
X145969892Y-127151977D01*
X145962415Y-127151357D01*
X145939990Y-127149500D01*
X145939987Y-127149500D01*
X145909986Y-127149500D01*
X145819854Y-127145772D01*
X145819853Y-127145772D01*
X145793762Y-127149024D01*
X145786090Y-127149500D01*
X142061178Y-127149500D01*
X141994139Y-127129815D01*
X141948384Y-127077011D01*
X141938440Y-127007853D01*
X141967465Y-126944297D01*
X141973497Y-126937819D01*
X146444498Y-122466819D01*
X146505821Y-122433334D01*
X146532179Y-122430500D01*
X154375210Y-122430500D01*
X154442249Y-122450185D01*
X154488004Y-122502989D01*
X154497948Y-122572147D01*
X154482597Y-122616500D01*
X154413258Y-122736599D01*
X154413256Y-122736603D01*
X154314666Y-122987804D01*
X154314664Y-122987811D01*
X154254616Y-123250898D01*
X154234451Y-123519995D01*
X154234451Y-123520004D01*
X154254616Y-123789101D01*
X154314664Y-124052188D01*
X154314666Y-124052195D01*
X154402539Y-124276091D01*
X154413257Y-124303398D01*
X154548185Y-124537102D01*
X154684080Y-124707509D01*
X154716442Y-124748089D01*
X154903183Y-124921358D01*
X154914259Y-124931635D01*
X155137226Y-125083651D01*
X155380359Y-125200738D01*
X155638228Y-125280280D01*
X155638229Y-125280280D01*
X155638232Y-125280281D01*
X155905063Y-125320499D01*
X155905068Y-125320499D01*
X155905071Y-125320500D01*
X155905072Y-125320500D01*
X156174928Y-125320500D01*
X156174929Y-125320500D01*
X156174936Y-125320499D01*
X156441767Y-125280281D01*
X156441768Y-125280280D01*
X156441772Y-125280280D01*
X156699641Y-125200738D01*
X156942775Y-125083651D01*
X157165741Y-124931635D01*
X157363561Y-124748085D01*
X157531815Y-124537102D01*
X157666743Y-124303398D01*
X157765334Y-124052195D01*
X157825383Y-123789103D01*
X157844290Y-123536805D01*
X157845549Y-123520004D01*
X157845549Y-123519995D01*
X157825383Y-123250898D01*
X157821657Y-123234572D01*
X157765334Y-122987805D01*
X157666743Y-122736602D01*
X157638009Y-122686833D01*
X157531820Y-122502905D01*
X157531816Y-122502900D01*
X157531815Y-122502898D01*
X157519584Y-122487560D01*
X157517551Y-122485010D01*
X157491144Y-122420322D01*
X157490500Y-122407700D01*
X157490500Y-121632178D01*
X157510185Y-121565139D01*
X157526819Y-121544497D01*
X159144497Y-119926819D01*
X159205820Y-119893334D01*
X159232178Y-119890500D01*
X161026090Y-119890500D01*
X161033762Y-119890975D01*
X161059853Y-119894228D01*
X161149986Y-119890500D01*
X161179990Y-119890500D01*
X161209891Y-119888022D01*
X161300031Y-119884294D01*
X161325761Y-119878898D01*
X161333361Y-119877790D01*
X161359563Y-119875620D01*
X161359566Y-119875619D01*
X161359568Y-119875619D01*
X161447001Y-119853477D01*
X161535299Y-119834964D01*
X161559794Y-119825404D01*
X161567102Y-119823063D01*
X161592591Y-119816610D01*
X161675194Y-119780376D01*
X161759238Y-119747583D01*
X161781831Y-119734118D01*
X161788650Y-119730609D01*
X161812728Y-119720049D01*
X161888252Y-119670705D01*
X161965740Y-119624533D01*
X161985803Y-119607540D01*
X161991951Y-119602955D01*
X162013969Y-119588571D01*
X162080340Y-119527472D01*
X162084075Y-119524309D01*
X162103235Y-119508082D01*
X162124458Y-119486858D01*
X162190825Y-119425764D01*
X162206978Y-119405008D01*
X162212052Y-119399263D01*
X163849263Y-117762052D01*
X163855008Y-117756978D01*
X163875764Y-117740825D01*
X163936858Y-117674458D01*
X163958078Y-117653239D01*
X163958078Y-117653238D01*
X163958082Y-117653235D01*
X163977472Y-117630340D01*
X163999106Y-117606839D01*
X164038571Y-117563969D01*
X164052955Y-117541951D01*
X164057540Y-117535803D01*
X164074533Y-117515740D01*
X164120705Y-117438252D01*
X164170049Y-117362728D01*
X164180609Y-117338650D01*
X164184118Y-117331831D01*
X164197583Y-117309238D01*
X164230376Y-117225194D01*
X164266610Y-117142591D01*
X164273063Y-117117102D01*
X164275404Y-117109794D01*
X164284964Y-117085299D01*
X164303477Y-116997001D01*
X164325620Y-116909563D01*
X164327790Y-116883361D01*
X164328898Y-116875761D01*
X164334294Y-116850031D01*
X164338022Y-116759891D01*
X164340500Y-116729990D01*
X164340500Y-116699986D01*
X164344228Y-116609853D01*
X164340975Y-116583762D01*
X164340500Y-116576090D01*
X164340500Y-114551513D01*
X164360185Y-114484474D01*
X164365233Y-114477202D01*
X164450716Y-114363011D01*
X164577574Y-114130689D01*
X164670077Y-113882678D01*
X164726343Y-113624026D01*
X164745227Y-113360000D01*
X164726343Y-113095974D01*
X164670077Y-112837322D01*
X164595670Y-112637830D01*
X164590687Y-112568142D01*
X164624172Y-112506819D01*
X164685495Y-112473334D01*
X164711853Y-112470500D01*
X180704978Y-112470500D01*
X180772017Y-112490185D01*
X180792659Y-112506819D01*
X184098158Y-115812318D01*
X184131643Y-115873641D01*
X184126659Y-115943333D01*
X184098158Y-115987680D01*
X182860502Y-117225336D01*
X182856927Y-117228641D01*
X182809312Y-117269310D01*
X182809311Y-117269311D01*
X182790416Y-117291434D01*
X182640586Y-117466862D01*
X182516527Y-117669311D01*
X182504851Y-117688362D01*
X182504847Y-117688369D01*
X182504846Y-117688372D01*
X182450470Y-117819645D01*
X182405425Y-117928394D01*
X182344778Y-118181009D01*
X182324396Y-118440000D01*
X182329309Y-118502426D01*
X182329500Y-118507292D01*
X182329500Y-124564374D01*
X182309815Y-124631413D01*
X182301602Y-124642735D01*
X182290304Y-124656590D01*
X182196089Y-124836954D01*
X182140114Y-125032583D01*
X182140113Y-125032586D01*
X182129500Y-125151965D01*
X182129500Y-125151966D01*
X182129501Y-126968032D01*
X182129501Y-126968033D01*
X182140113Y-127087415D01*
X182196089Y-127283045D01*
X182196090Y-127283048D01*
X182196091Y-127283049D01*
X182290302Y-127463407D01*
X182316568Y-127495620D01*
X182418890Y-127621109D01*
X182505788Y-127691964D01*
X182576593Y-127749698D01*
X182756951Y-127843909D01*
X182952582Y-127899886D01*
X183071963Y-127910500D01*
X183071964Y-127910499D01*
X183071965Y-127910500D01*
X183071966Y-127910500D01*
X183850280Y-127910499D01*
X184888036Y-127910499D01*
X185007418Y-127899886D01*
X185203049Y-127843909D01*
X185383407Y-127749698D01*
X185541109Y-127621109D01*
X185669698Y-127463407D01*
X185763909Y-127283049D01*
X185785651Y-127207062D01*
X185823017Y-127148027D01*
X185886370Y-127118563D01*
X185955596Y-127128028D01*
X186008715Y-127173416D01*
X186028863Y-127240318D01*
X186028519Y-127250441D01*
X186022558Y-127329994D01*
X186022558Y-127330004D01*
X186042298Y-127593422D01*
X186042298Y-127593424D01*
X186101077Y-127850953D01*
X186101080Y-127850963D01*
X186197590Y-128096864D01*
X186329671Y-128325636D01*
X186462699Y-128492449D01*
X186494376Y-128532170D01*
X186664360Y-128689891D01*
X186688018Y-128711842D01*
X186906279Y-128860650D01*
X186906284Y-128860652D01*
X186906285Y-128860653D01*
X186906286Y-128860654D01*
X187032688Y-128921525D01*
X187144277Y-128975263D01*
X187144278Y-128975263D01*
X187144281Y-128975265D01*
X187396707Y-129053129D01*
X187396708Y-129053129D01*
X187396711Y-129053130D01*
X187657911Y-129092499D01*
X187657916Y-129092499D01*
X187657919Y-129092500D01*
X187657920Y-129092500D01*
X187922080Y-129092500D01*
X187922081Y-129092500D01*
X187922088Y-129092499D01*
X188183288Y-129053130D01*
X188183289Y-129053129D01*
X188183293Y-129053129D01*
X188357732Y-128999321D01*
X188400889Y-128986009D01*
X188437439Y-128980500D01*
X207374978Y-128980500D01*
X207442017Y-129000185D01*
X207462659Y-129016819D01*
X208165347Y-129719507D01*
X208168640Y-129723070D01*
X208186685Y-129744198D01*
X208209311Y-129770689D01*
X208258777Y-129812937D01*
X208258778Y-129812938D01*
X208258787Y-129812946D01*
X208258802Y-129812960D01*
X208406856Y-129939409D01*
X208406864Y-129939415D01*
X208628371Y-130075154D01*
X208628373Y-130075155D01*
X208689561Y-130100500D01*
X208743855Y-130122989D01*
X208868390Y-130174573D01*
X209121006Y-130235221D01*
X209380000Y-130255604D01*
X209438276Y-130251017D01*
X209442427Y-130250691D01*
X209447293Y-130250500D01*
X212964374Y-130250500D01*
X213031413Y-130270185D01*
X213042730Y-130278394D01*
X213056593Y-130289698D01*
X213236951Y-130383909D01*
X213236953Y-130383909D01*
X213236954Y-130383910D01*
X213256355Y-130389461D01*
X213432582Y-130439886D01*
X213551963Y-130450500D01*
X213551964Y-130450499D01*
X213551965Y-130450500D01*
X213551966Y-130450500D01*
X214330280Y-130450499D01*
X215368036Y-130450499D01*
X215487418Y-130439886D01*
X215683049Y-130383909D01*
X215863407Y-130289698D01*
X216021109Y-130161109D01*
X216149698Y-130003407D01*
X216243909Y-129823049D01*
X216299886Y-129627418D01*
X216310500Y-129508037D01*
X216310499Y-127691964D01*
X216299886Y-127572582D01*
X216243909Y-127376951D01*
X216149698Y-127196593D01*
X216060675Y-127087415D01*
X216021109Y-127038890D01*
X215877247Y-126921587D01*
X215863407Y-126910302D01*
X215683049Y-126816091D01*
X215683048Y-126816090D01*
X215683045Y-126816089D01*
X215565829Y-126782550D01*
X215487418Y-126760114D01*
X215487415Y-126760113D01*
X215487413Y-126760113D01*
X215396983Y-126752073D01*
X215368037Y-126749500D01*
X215368035Y-126749500D01*
X215368034Y-126749500D01*
X214589720Y-126749500D01*
X213551964Y-126749501D01*
X213522727Y-126752100D01*
X213432584Y-126760113D01*
X213236954Y-126816089D01*
X213146772Y-126863196D01*
X213056593Y-126910302D01*
X213056591Y-126910303D01*
X213056590Y-126910304D01*
X213042735Y-126921602D01*
X212978339Y-126948711D01*
X212964374Y-126949500D01*
X210115022Y-126949500D01*
X210047983Y-126929815D01*
X210027341Y-126913181D01*
X209677293Y-126563133D01*
X209324650Y-126210490D01*
X209321367Y-126206939D01*
X209280689Y-126159311D01*
X209083140Y-125990588D01*
X208861628Y-125854846D01*
X208861627Y-125854845D01*
X208861623Y-125854843D01*
X208695627Y-125786086D01*
X208621610Y-125755427D01*
X208621611Y-125755427D01*
X208483921Y-125722370D01*
X208368994Y-125694779D01*
X208368992Y-125694778D01*
X208368991Y-125694778D01*
X208174853Y-125679500D01*
X208172426Y-125679309D01*
X208110000Y-125674396D01*
X208109999Y-125674396D01*
X208047573Y-125679309D01*
X208042707Y-125679500D01*
X188437439Y-125679500D01*
X188400889Y-125673991D01*
X188183294Y-125606871D01*
X188183288Y-125606869D01*
X187922088Y-125567500D01*
X187922081Y-125567500D01*
X187657919Y-125567500D01*
X187657911Y-125567500D01*
X187396711Y-125606869D01*
X187396705Y-125606871D01*
X187144277Y-125684736D01*
X186906286Y-125799345D01*
X186906285Y-125799346D01*
X186688017Y-125948158D01*
X186494376Y-126127829D01*
X186329671Y-126334364D01*
X186197591Y-126563133D01*
X186197589Y-126563137D01*
X186101080Y-126809036D01*
X186101078Y-126809043D01*
X186075390Y-126921587D01*
X186041281Y-126982566D01*
X185979619Y-127015423D01*
X185909982Y-127009727D01*
X185854479Y-126967287D01*
X185830731Y-126901577D01*
X185830499Y-126894025D01*
X185830499Y-125151964D01*
X185819886Y-125032582D01*
X185763909Y-124836951D01*
X185669698Y-124656593D01*
X185658397Y-124642733D01*
X185631289Y-124578339D01*
X185630500Y-124564374D01*
X185630500Y-119175020D01*
X185650185Y-119107981D01*
X185666814Y-119087344D01*
X186059647Y-118694511D01*
X186120969Y-118661027D01*
X186190661Y-118666011D01*
X186246594Y-118707883D01*
X186271011Y-118773347D01*
X186256159Y-118841620D01*
X186254714Y-118844193D01*
X186197591Y-118943133D01*
X186197589Y-118943137D01*
X186101080Y-119189036D01*
X186101077Y-119189046D01*
X186042298Y-119446575D01*
X186042298Y-119446577D01*
X186022558Y-119709995D01*
X186022558Y-119710004D01*
X186042298Y-119973422D01*
X186042298Y-119973424D01*
X186101077Y-120230953D01*
X186101080Y-120230963D01*
X186185323Y-120445610D01*
X186197590Y-120476864D01*
X186329671Y-120705636D01*
X186486814Y-120902687D01*
X186513223Y-120967374D01*
X186500466Y-121036069D01*
X186486814Y-121057313D01*
X186329671Y-121254364D01*
X186197591Y-121483133D01*
X186197589Y-121483137D01*
X186101080Y-121729036D01*
X186101077Y-121729046D01*
X186042298Y-121986575D01*
X186042298Y-121986577D01*
X186022558Y-122249995D01*
X186022558Y-122250004D01*
X186042298Y-122513422D01*
X186042298Y-122513424D01*
X186101077Y-122770953D01*
X186101080Y-122770963D01*
X186186184Y-122987804D01*
X186197590Y-123016864D01*
X186329671Y-123245636D01*
X186336599Y-123254323D01*
X186494376Y-123452170D01*
X186651737Y-123598178D01*
X186688018Y-123631842D01*
X186906279Y-123780650D01*
X186906284Y-123780652D01*
X186906285Y-123780653D01*
X186906286Y-123780654D01*
X186981493Y-123816871D01*
X187144277Y-123895263D01*
X187144278Y-123895263D01*
X187144281Y-123895265D01*
X187396707Y-123973129D01*
X187396708Y-123973129D01*
X187396711Y-123973130D01*
X187657911Y-124012499D01*
X187657916Y-124012499D01*
X187657919Y-124012500D01*
X187657920Y-124012500D01*
X187922080Y-124012500D01*
X187922081Y-124012500D01*
X187992508Y-124001884D01*
X188010989Y-124000500D01*
X213157269Y-124000500D01*
X213255635Y-124004181D01*
X213255635Y-124004180D01*
X213255636Y-124004181D01*
X213353460Y-123993158D01*
X213451630Y-123985802D01*
X213467667Y-123982141D01*
X213480287Y-123979261D01*
X213487147Y-123978095D01*
X213490042Y-123977768D01*
X213516350Y-123974805D01*
X213579736Y-123957820D01*
X213611431Y-123949328D01*
X213707408Y-123927422D01*
X213707409Y-123927421D01*
X213707416Y-123927420D01*
X213734790Y-123916675D01*
X213741372Y-123914509D01*
X213769775Y-123906900D01*
X213859999Y-123867535D01*
X213951643Y-123831568D01*
X213977119Y-123816857D01*
X213983287Y-123813744D01*
X214010247Y-123801983D01*
X214093602Y-123749607D01*
X214178857Y-123700386D01*
X214201845Y-123682052D01*
X214207492Y-123678045D01*
X214232397Y-123662398D01*
X214307020Y-123598178D01*
X214383969Y-123536815D01*
X214383971Y-123536812D01*
X214383981Y-123536805D01*
X214450929Y-123464651D01*
X215048762Y-122866818D01*
X215110085Y-122833333D01*
X215136443Y-122830499D01*
X215368033Y-122830499D01*
X215368036Y-122830499D01*
X215487418Y-122819886D01*
X215683049Y-122763909D01*
X215863407Y-122669698D01*
X216021109Y-122541109D01*
X216149698Y-122383407D01*
X216243909Y-122203049D01*
X216299886Y-122007418D01*
X216310500Y-121888037D01*
X216310499Y-120071964D01*
X216299886Y-119952582D01*
X216243909Y-119756951D01*
X216149698Y-119576593D01*
X216081447Y-119492890D01*
X216054338Y-119428494D01*
X216066347Y-119359664D01*
X216068706Y-119355122D01*
X216147574Y-119210689D01*
X216240077Y-118962678D01*
X216296343Y-118704026D01*
X216315227Y-118440000D01*
X216296343Y-118175974D01*
X216240077Y-117917322D01*
X216147574Y-117669311D01*
X216113458Y-117606833D01*
X216020719Y-117436994D01*
X216020714Y-117436986D01*
X215862093Y-117225092D01*
X215862077Y-117225074D01*
X215674925Y-117037922D01*
X215674907Y-117037906D01*
X215463013Y-116879285D01*
X215463005Y-116879280D01*
X215230694Y-116752428D01*
X215230690Y-116752426D01*
X214982673Y-116659921D01*
X214724034Y-116603658D01*
X214724027Y-116603657D01*
X214460001Y-116584773D01*
X214459999Y-116584773D01*
X214195972Y-116603657D01*
X214195965Y-116603658D01*
X213937324Y-116659922D01*
X213878982Y-116681682D01*
X213835650Y-116689500D01*
X210019022Y-116689500D01*
X209951983Y-116669815D01*
X209906228Y-116617011D01*
X209896284Y-116547853D01*
X209925309Y-116484297D01*
X209931341Y-116477819D01*
X210596842Y-115812318D01*
X214299520Y-112109638D01*
X214303059Y-112106367D01*
X214350689Y-112065689D01*
X214519412Y-111868140D01*
X214655154Y-111646628D01*
X214754573Y-111406610D01*
X214815221Y-111153994D01*
X214830500Y-110959853D01*
X214835604Y-110895000D01*
X214830691Y-110832572D01*
X214830500Y-110827706D01*
X214830500Y-110259021D01*
X214850185Y-110191982D01*
X214858393Y-110180667D01*
X214884698Y-110148407D01*
X214978909Y-109968049D01*
X215034886Y-109772418D01*
X215045500Y-109653037D01*
X215045499Y-107506964D01*
X215034886Y-107387582D01*
X214979979Y-107195689D01*
X214978910Y-107191954D01*
X214978909Y-107191953D01*
X214978909Y-107191951D01*
X214884698Y-107011593D01*
X214822807Y-106935690D01*
X214756109Y-106853890D01*
X214640933Y-106759977D01*
X214598407Y-106725302D01*
X214418049Y-106631091D01*
X214418048Y-106631090D01*
X214418045Y-106631089D01*
X214300829Y-106597550D01*
X214222418Y-106575114D01*
X214222415Y-106575113D01*
X214222413Y-106575113D01*
X214131983Y-106567073D01*
X214103037Y-106564500D01*
X214103035Y-106564500D01*
X214103034Y-106564500D01*
X213311862Y-106564500D01*
X212256964Y-106564501D01*
X212227727Y-106567100D01*
X212137584Y-106575113D01*
X211941954Y-106631089D01*
X211887197Y-106659692D01*
X211761593Y-106725302D01*
X211761591Y-106725303D01*
X211761590Y-106725304D01*
X211603890Y-106853890D01*
X211475304Y-107011590D01*
X211381089Y-107191954D01*
X211325114Y-107387583D01*
X211325113Y-107387586D01*
X211314500Y-107506965D01*
X211314500Y-107506966D01*
X211314501Y-109653032D01*
X211314501Y-109653033D01*
X211325113Y-109772415D01*
X211381090Y-109968047D01*
X211473334Y-110144640D01*
X211486925Y-110213175D01*
X211461306Y-110278178D01*
X211451106Y-110289732D01*
X207527659Y-114213181D01*
X207466336Y-114246666D01*
X207439978Y-114249500D01*
X199955021Y-114249500D01*
X199887982Y-114229815D01*
X199867340Y-114213181D01*
X196394155Y-110739996D01*
X192814650Y-107160490D01*
X192811367Y-107156939D01*
X192770689Y-107109311D01*
X192573140Y-106940588D01*
X192351628Y-106804846D01*
X192351627Y-106804845D01*
X192351623Y-106804843D01*
X192159592Y-106725302D01*
X192111610Y-106705427D01*
X192111611Y-106705427D01*
X191921119Y-106659694D01*
X191858994Y-106644779D01*
X191858992Y-106644778D01*
X191858991Y-106644778D01*
X191664853Y-106629500D01*
X191662426Y-106629309D01*
X191600000Y-106624396D01*
X191599999Y-106624396D01*
X191537573Y-106629309D01*
X191532707Y-106629500D01*
X186587293Y-106629500D01*
X186582427Y-106629309D01*
X186520000Y-106624396D01*
X186455147Y-106629500D01*
X186261009Y-106644778D01*
X186008389Y-106705427D01*
X185768376Y-106804843D01*
X185546859Y-106940588D01*
X185349311Y-107109311D01*
X185180588Y-107306859D01*
X185044843Y-107528376D01*
X184945427Y-107768389D01*
X184884778Y-108021009D01*
X184864396Y-108280000D01*
X184869309Y-108342426D01*
X184869500Y-108347292D01*
X184869500Y-111615978D01*
X184849815Y-111683017D01*
X184797011Y-111728772D01*
X184727853Y-111738716D01*
X184664297Y-111709691D01*
X184657819Y-111703659D01*
X183694156Y-110739996D01*
X182654650Y-109700490D01*
X182651362Y-109696933D01*
X182610689Y-109649311D01*
X182413140Y-109480588D01*
X182191628Y-109344846D01*
X182191627Y-109344845D01*
X182191623Y-109344843D01*
X182008233Y-109268881D01*
X181951610Y-109245427D01*
X181951611Y-109245427D01*
X181813921Y-109212370D01*
X181698994Y-109184779D01*
X181698992Y-109184778D01*
X181698991Y-109184778D01*
X181504853Y-109169500D01*
X181502426Y-109169309D01*
X181440000Y-109164396D01*
X181439999Y-109164396D01*
X181377573Y-109169309D01*
X181372707Y-109169500D01*
X161187293Y-109169500D01*
X161182427Y-109169309D01*
X161120000Y-109164396D01*
X161055147Y-109169500D01*
X160861009Y-109184778D01*
X160608389Y-109245427D01*
X160466353Y-109304261D01*
X160368377Y-109344843D01*
X160368364Y-109344849D01*
X160157661Y-109473969D01*
X160146861Y-109480587D01*
X160146857Y-109480590D01*
X159949311Y-109649311D01*
X159949303Y-109649318D01*
X159908636Y-109696933D01*
X159905331Y-109700509D01*
X159230502Y-110375337D01*
X159226927Y-110378641D01*
X159179312Y-110419310D01*
X159010588Y-110616859D01*
X158874843Y-110838376D01*
X158775427Y-111078389D01*
X158714778Y-111331010D01*
X158712939Y-111354390D01*
X158694359Y-111590470D01*
X158669475Y-111655758D01*
X158613244Y-111697229D01*
X158580470Y-111704359D01*
X158515147Y-111709500D01*
X158321009Y-111724778D01*
X158068389Y-111785427D01*
X157828376Y-111884843D01*
X157606859Y-112020588D01*
X157409310Y-112189312D01*
X157368641Y-112236927D01*
X157365336Y-112240502D01*
X152852659Y-116753181D01*
X152791336Y-116786666D01*
X152764978Y-116789500D01*
X143407293Y-116789500D01*
X143402427Y-116789309D01*
X143340000Y-116784396D01*
X143275147Y-116789500D01*
X143081009Y-116804778D01*
X142828389Y-116865427D01*
X142588376Y-116964843D01*
X142366859Y-117100588D01*
X142169310Y-117269312D01*
X142128641Y-117316927D01*
X142125336Y-117320502D01*
X137612659Y-121833181D01*
X137551336Y-121866666D01*
X137524978Y-121869500D01*
X134999417Y-121869500D01*
X134932378Y-121849815D01*
X134903315Y-121823861D01*
X134900714Y-121820671D01*
X134891109Y-121808891D01*
X134733407Y-121680302D01*
X134553049Y-121586091D01*
X134553048Y-121586090D01*
X134553045Y-121586089D01*
X134407684Y-121544497D01*
X134357418Y-121530114D01*
X134357415Y-121530113D01*
X134357413Y-121530113D01*
X134266983Y-121522073D01*
X134238037Y-121519500D01*
X134238035Y-121519500D01*
X134238034Y-121519500D01*
X133331148Y-121519500D01*
X132121964Y-121519501D01*
X132092727Y-121522100D01*
X132002584Y-121530113D01*
X131806954Y-121586089D01*
X131718722Y-121632178D01*
X131626593Y-121680302D01*
X131626591Y-121680303D01*
X131626590Y-121680304D01*
X131468893Y-121808889D01*
X131456685Y-121823861D01*
X131399063Y-121863378D01*
X131360583Y-121869500D01*
X131298690Y-121869500D01*
X131231651Y-121849815D01*
X131211009Y-121833181D01*
X129786819Y-120408991D01*
X129753334Y-120347668D01*
X129750500Y-120321310D01*
X129750500Y-91433046D01*
X129770185Y-91366007D01*
X129822989Y-91320252D01*
X129864772Y-91309428D01*
X129918234Y-91305221D01*
X130170850Y-91244573D01*
X130410868Y-91145154D01*
X130632380Y-91009412D01*
X130829929Y-90840689D01*
X130870607Y-90793059D01*
X130873878Y-90789520D01*
X130981663Y-90681735D01*
X131042984Y-90648252D01*
X131112676Y-90653236D01*
X131168609Y-90695108D01*
X131193026Y-90760570D01*
X131194804Y-90785428D01*
X131194804Y-90785433D01*
X131255628Y-91065037D01*
X131255630Y-91065043D01*
X131255631Y-91065046D01*
X131345212Y-91305221D01*
X131355635Y-91333166D01*
X131492770Y-91584309D01*
X131492771Y-91584310D01*
X131492774Y-91584315D01*
X131567796Y-91684533D01*
X131576148Y-91695690D01*
X131600564Y-91761155D01*
X131585712Y-91829428D01*
X131576150Y-91844306D01*
X131551642Y-91877046D01*
X131492770Y-91955690D01*
X131355635Y-92206833D01*
X131255628Y-92474962D01*
X131194804Y-92754566D01*
X131174390Y-93039998D01*
X131174390Y-93040001D01*
X131194804Y-93325433D01*
X131255628Y-93605037D01*
X131355635Y-93873166D01*
X131492770Y-94124309D01*
X131492771Y-94124310D01*
X131492774Y-94124315D01*
X131576147Y-94235689D01*
X131576148Y-94235690D01*
X131600564Y-94301155D01*
X131585712Y-94369428D01*
X131576150Y-94384306D01*
X131554977Y-94412591D01*
X131492770Y-94495690D01*
X131355635Y-94746833D01*
X131255628Y-95014962D01*
X131194804Y-95294566D01*
X131174390Y-95579998D01*
X131174390Y-95580001D01*
X131194804Y-95865433D01*
X131255628Y-96145037D01*
X131255630Y-96145043D01*
X131255631Y-96145046D01*
X131355633Y-96413161D01*
X131355635Y-96413166D01*
X131492770Y-96664309D01*
X131492772Y-96664312D01*
X131492774Y-96664315D01*
X131576148Y-96775690D01*
X131600564Y-96841155D01*
X131585712Y-96909428D01*
X131576150Y-96924306D01*
X131551642Y-96957046D01*
X131492770Y-97035690D01*
X131355635Y-97286833D01*
X131255628Y-97554962D01*
X131194804Y-97834566D01*
X131174390Y-98119998D01*
X131174390Y-98120001D01*
X131194804Y-98405433D01*
X131255628Y-98685037D01*
X131255630Y-98685043D01*
X131255631Y-98685046D01*
X131288130Y-98772179D01*
X131355635Y-98953166D01*
X131492770Y-99204309D01*
X131492772Y-99204312D01*
X131492774Y-99204315D01*
X131576148Y-99315690D01*
X131600564Y-99381155D01*
X131585712Y-99449428D01*
X131576150Y-99464306D01*
X131533292Y-99521559D01*
X131492770Y-99575690D01*
X131355635Y-99826833D01*
X131255628Y-100094962D01*
X131194804Y-100374566D01*
X131174390Y-100659998D01*
X131174390Y-100660001D01*
X131194804Y-100945433D01*
X131255628Y-101225037D01*
X131355635Y-101493166D01*
X131492770Y-101744309D01*
X131492771Y-101744310D01*
X131492774Y-101744315D01*
X131567796Y-101844533D01*
X131576148Y-101855690D01*
X131600564Y-101921155D01*
X131585712Y-101989428D01*
X131576150Y-102004306D01*
X131547139Y-102043061D01*
X131492770Y-102115690D01*
X131355635Y-102366833D01*
X131255628Y-102634962D01*
X131194804Y-102914566D01*
X131174390Y-103199998D01*
X131174390Y-103200001D01*
X131194804Y-103485433D01*
X131255628Y-103765037D01*
X131355635Y-104033166D01*
X131492770Y-104284309D01*
X131576148Y-104395690D01*
X131600564Y-104461155D01*
X131585712Y-104529428D01*
X131576148Y-104544310D01*
X131492770Y-104655690D01*
X131355635Y-104906833D01*
X131255628Y-105174962D01*
X131194804Y-105454566D01*
X131174390Y-105739998D01*
X131174390Y-105740001D01*
X131194804Y-106025433D01*
X131255628Y-106305037D01*
X131355635Y-106573166D01*
X131492770Y-106824309D01*
X131492771Y-106824310D01*
X131492774Y-106824315D01*
X131555981Y-106908750D01*
X131576148Y-106935690D01*
X131600564Y-107001155D01*
X131585712Y-107069428D01*
X131576148Y-107084310D01*
X131492770Y-107195690D01*
X131355635Y-107446833D01*
X131255628Y-107714962D01*
X131194804Y-107994566D01*
X131174390Y-108279998D01*
X131174390Y-108280001D01*
X131194804Y-108565433D01*
X131255628Y-108845037D01*
X131255630Y-108845043D01*
X131255631Y-108845046D01*
X131355633Y-109113161D01*
X131355635Y-109113166D01*
X131492770Y-109364309D01*
X131492771Y-109364310D01*
X131492774Y-109364315D01*
X131576147Y-109475689D01*
X131576148Y-109475690D01*
X131600564Y-109541155D01*
X131585712Y-109609428D01*
X131576150Y-109624306D01*
X131557432Y-109649311D01*
X131492770Y-109735690D01*
X131355635Y-109986833D01*
X131255628Y-110254962D01*
X131194804Y-110534566D01*
X131174390Y-110819998D01*
X131174390Y-110820001D01*
X131194804Y-111105433D01*
X131255628Y-111385037D01*
X131255630Y-111385043D01*
X131255631Y-111385046D01*
X131353196Y-111646628D01*
X131355635Y-111653166D01*
X131492770Y-111904309D01*
X131492771Y-111904310D01*
X131492774Y-111904315D01*
X131576147Y-112015689D01*
X131576148Y-112015690D01*
X131600564Y-112081155D01*
X131585712Y-112149428D01*
X131576148Y-112164310D01*
X131492770Y-112275690D01*
X131355635Y-112526833D01*
X131255628Y-112794962D01*
X131194804Y-113074566D01*
X131174390Y-113359998D01*
X131174390Y-113360001D01*
X131194804Y-113645433D01*
X131255628Y-113925037D01*
X131255630Y-113925043D01*
X131255631Y-113925046D01*
X131332334Y-114130694D01*
X131355635Y-114193166D01*
X131492770Y-114444309D01*
X131492771Y-114444310D01*
X131492774Y-114444315D01*
X131573021Y-114551513D01*
X131576148Y-114555690D01*
X131600564Y-114621155D01*
X131585712Y-114689428D01*
X131576150Y-114704306D01*
X131551967Y-114736612D01*
X131492770Y-114815690D01*
X131355635Y-115066833D01*
X131255628Y-115334962D01*
X131194804Y-115614566D01*
X131174390Y-115899998D01*
X131174390Y-115900001D01*
X131194804Y-116185433D01*
X131255628Y-116465037D01*
X131255630Y-116465043D01*
X131255631Y-116465046D01*
X131339348Y-116689500D01*
X131355635Y-116733166D01*
X131492770Y-116984309D01*
X131492771Y-116984310D01*
X131492774Y-116984315D01*
X131576147Y-117095689D01*
X131576148Y-117095690D01*
X131600564Y-117161155D01*
X131585712Y-117229428D01*
X131576148Y-117244310D01*
X131492770Y-117355690D01*
X131355635Y-117606833D01*
X131255628Y-117874962D01*
X131194804Y-118154566D01*
X131174390Y-118439998D01*
X131174390Y-118440001D01*
X131194804Y-118725433D01*
X131255628Y-119005037D01*
X131255630Y-119005043D01*
X131255631Y-119005046D01*
X131319028Y-119175020D01*
X131355635Y-119273166D01*
X131492770Y-119524309D01*
X131492775Y-119524317D01*
X131664254Y-119753387D01*
X131664270Y-119753405D01*
X131866594Y-119955729D01*
X131866612Y-119955745D01*
X132095682Y-120127224D01*
X132095690Y-120127229D01*
X132346833Y-120264364D01*
X132346832Y-120264364D01*
X132346836Y-120264365D01*
X132346839Y-120264367D01*
X132614954Y-120364369D01*
X132614960Y-120364370D01*
X132614962Y-120364371D01*
X132894566Y-120425195D01*
X132894568Y-120425195D01*
X132894572Y-120425196D01*
X133148220Y-120443337D01*
X133179999Y-120445610D01*
X133180000Y-120445610D01*
X133180001Y-120445610D01*
X133208595Y-120443564D01*
X133465428Y-120425196D01*
X133539922Y-120408991D01*
X133745037Y-120364371D01*
X133745037Y-120364370D01*
X133745046Y-120364369D01*
X134013161Y-120264367D01*
X134264315Y-120127226D01*
X134493395Y-119955739D01*
X134695739Y-119753395D01*
X134867226Y-119524315D01*
X135004367Y-119273161D01*
X135104369Y-119005046D01*
X135165196Y-118725428D01*
X135185610Y-118440000D01*
X135165196Y-118154572D01*
X135115993Y-117928390D01*
X135104371Y-117874962D01*
X135104370Y-117874960D01*
X135104369Y-117874954D01*
X135004367Y-117606839D01*
X134967179Y-117538735D01*
X134867229Y-117355690D01*
X134867228Y-117355689D01*
X134867226Y-117355685D01*
X134783849Y-117244307D01*
X134759434Y-117178847D01*
X134774285Y-117110574D01*
X134783841Y-117095703D01*
X134867226Y-116984315D01*
X135004367Y-116733161D01*
X135104369Y-116465046D01*
X135165196Y-116185428D01*
X135185610Y-115900000D01*
X135165196Y-115614572D01*
X135104369Y-115334954D01*
X135004367Y-115066839D01*
X134964553Y-114993926D01*
X134949702Y-114925655D01*
X134974118Y-114860190D01*
X135030052Y-114818318D01*
X135073386Y-114810500D01*
X138380189Y-114810500D01*
X138380192Y-114810500D01*
X138437036Y-114801013D01*
X138442121Y-114800379D01*
X138448538Y-114799847D01*
X138499563Y-114795620D01*
X138555442Y-114781468D01*
X138560432Y-114780422D01*
X138617297Y-114770934D01*
X138671815Y-114752217D01*
X138676696Y-114750763D01*
X138732591Y-114736610D01*
X138785383Y-114713452D01*
X138790142Y-114711595D01*
X138844656Y-114692882D01*
X138895349Y-114665447D01*
X138899931Y-114663207D01*
X138952728Y-114640049D01*
X139000984Y-114608521D01*
X139005366Y-114605908D01*
X139056067Y-114578472D01*
X139101565Y-114543058D01*
X139105705Y-114540102D01*
X139153969Y-114508571D01*
X139196377Y-114469530D01*
X139200271Y-114466232D01*
X139245764Y-114430825D01*
X139284808Y-114388410D01*
X139288410Y-114384808D01*
X139330825Y-114345764D01*
X139366232Y-114300271D01*
X139369535Y-114296372D01*
X139408569Y-114253971D01*
X139408568Y-114253971D01*
X139408571Y-114253969D01*
X139440102Y-114205705D01*
X139443058Y-114201565D01*
X139478472Y-114156067D01*
X139505908Y-114105366D01*
X139508521Y-114100984D01*
X139511500Y-114096423D01*
X139540049Y-114052728D01*
X139563207Y-113999931D01*
X139565450Y-113995344D01*
X139592882Y-113944656D01*
X139611595Y-113890142D01*
X139613452Y-113885383D01*
X139636610Y-113832591D01*
X139650763Y-113776696D01*
X139652217Y-113771815D01*
X139670934Y-113717297D01*
X139680422Y-113660432D01*
X139681468Y-113655442D01*
X139695620Y-113599563D01*
X139700379Y-113542121D01*
X139701014Y-113537031D01*
X139710499Y-113480198D01*
X139710500Y-113480188D01*
X139710500Y-108932178D01*
X139730185Y-108865139D01*
X139746819Y-108844497D01*
X142531316Y-106060000D01*
X183440614Y-106060000D01*
X183455775Y-106106662D01*
X183495468Y-106135501D01*
X183544531Y-106135501D01*
X183544532Y-106135501D01*
X183584225Y-106106662D01*
X183599386Y-106060000D01*
X183584225Y-106013338D01*
X183544532Y-105984499D01*
X183495468Y-105984499D01*
X183455775Y-106013337D01*
X183455775Y-106013338D01*
X183440614Y-106060000D01*
X142531316Y-106060000D01*
X146444497Y-102146819D01*
X146505820Y-102113334D01*
X146532178Y-102110500D01*
X183886090Y-102110500D01*
X183893762Y-102110975D01*
X183919853Y-102114228D01*
X184009986Y-102110500D01*
X184039990Y-102110500D01*
X184069891Y-102108022D01*
X184160031Y-102104294D01*
X184185761Y-102098898D01*
X184193361Y-102097790D01*
X184219563Y-102095620D01*
X184219566Y-102095619D01*
X184219568Y-102095619D01*
X184307001Y-102073477D01*
X184395299Y-102054964D01*
X184419794Y-102045404D01*
X184427102Y-102043063D01*
X184452591Y-102036610D01*
X184535194Y-102000376D01*
X184619238Y-101967583D01*
X184641831Y-101954118D01*
X184648650Y-101950609D01*
X184672728Y-101940049D01*
X184748252Y-101890705D01*
X184825740Y-101844533D01*
X184845803Y-101827540D01*
X184851951Y-101822955D01*
X184873969Y-101808571D01*
X184940340Y-101747472D01*
X184944068Y-101744315D01*
X184963235Y-101728082D01*
X184984458Y-101706858D01*
X185050825Y-101645764D01*
X185066978Y-101625008D01*
X185072052Y-101619263D01*
X190029263Y-96662052D01*
X190035008Y-96656978D01*
X190055764Y-96640825D01*
X190116858Y-96574458D01*
X190138078Y-96553239D01*
X190138078Y-96553238D01*
X190138082Y-96553235D01*
X190157472Y-96530340D01*
X190159761Y-96527853D01*
X190218571Y-96463969D01*
X190232955Y-96441951D01*
X190237540Y-96435803D01*
X190254533Y-96415740D01*
X190300705Y-96338252D01*
X190350049Y-96262728D01*
X190360609Y-96238650D01*
X190364118Y-96231831D01*
X190377583Y-96209238D01*
X190410376Y-96125194D01*
X190446610Y-96042591D01*
X190453063Y-96017102D01*
X190455404Y-96009794D01*
X190464964Y-95985299D01*
X190483477Y-95897001D01*
X190505620Y-95809563D01*
X190507790Y-95783361D01*
X190508898Y-95775761D01*
X190514294Y-95750031D01*
X190518022Y-95659891D01*
X190520500Y-95629990D01*
X190520500Y-95599986D01*
X190524228Y-95509853D01*
X190520975Y-95483762D01*
X190520500Y-95476090D01*
X190520500Y-89334087D01*
X190540185Y-89267048D01*
X190547893Y-89256925D01*
X190547713Y-89256786D01*
X190550482Y-89253198D01*
X190550486Y-89253194D01*
X190701160Y-89025451D01*
X190817068Y-88778197D01*
X190895740Y-88516701D01*
X190935500Y-88246537D01*
X190935500Y-87741821D01*
X190920557Y-87537654D01*
X190861182Y-87271114D01*
X190763632Y-87016058D01*
X190629985Y-86777924D01*
X190528575Y-86646594D01*
X190463090Y-86561788D01*
X190463081Y-86561779D01*
X190266505Y-86372256D01*
X190266503Y-86372254D01*
X190201092Y-86325456D01*
X190044414Y-86213363D01*
X190032855Y-86207420D01*
X189801572Y-86088508D01*
X189801554Y-86088501D01*
X189543118Y-86000333D01*
X189543104Y-86000330D01*
X189274574Y-85950730D01*
X189001687Y-85940757D01*
X188730249Y-85970624D01*
X188466058Y-86039692D01*
X188214733Y-86146493D01*
X187981646Y-86288744D01*
X187981634Y-86288753D01*
X187883218Y-86370654D01*
X187819096Y-86398406D01*
X187750150Y-86387086D01*
X187730495Y-86374459D01*
X187730187Y-86374890D01*
X187726503Y-86372254D01*
X187726502Y-86372253D01*
X187504414Y-86213363D01*
X187492855Y-86207420D01*
X187261572Y-86088508D01*
X187261554Y-86088501D01*
X187003118Y-86000333D01*
X187003106Y-86000330D01*
X186907784Y-85982723D01*
X186845436Y-85951189D01*
X186842627Y-85948467D01*
X184782833Y-83888673D01*
X182654650Y-81760490D01*
X182651367Y-81756939D01*
X182610689Y-81709311D01*
X182413140Y-81540588D01*
X182191628Y-81404846D01*
X182191627Y-81404845D01*
X182191623Y-81404843D01*
X182025627Y-81336086D01*
X181951610Y-81305427D01*
X181951611Y-81305427D01*
X181813921Y-81272370D01*
X181698994Y-81244779D01*
X181698992Y-81244778D01*
X181698991Y-81244778D01*
X181504853Y-81229500D01*
X181502426Y-81229309D01*
X181440000Y-81224396D01*
X181439999Y-81224396D01*
X181377573Y-81229309D01*
X181372707Y-81229500D01*
X161187293Y-81229500D01*
X161182427Y-81229309D01*
X161120000Y-81224396D01*
X160861009Y-81244778D01*
X160608389Y-81305427D01*
X160368376Y-81404843D01*
X160146859Y-81540588D01*
X160052701Y-81621007D01*
X159949317Y-81709305D01*
X159949309Y-81709313D01*
X159908641Y-81756927D01*
X159905336Y-81760502D01*
X159100502Y-82565336D01*
X159096927Y-82568641D01*
X159049312Y-82609310D01*
X158880588Y-82806859D01*
X158744843Y-83028376D01*
X158645427Y-83268389D01*
X158584778Y-83521009D01*
X158582030Y-83555936D01*
X158564396Y-83780000D01*
X158569309Y-83842426D01*
X158569500Y-83847292D01*
X158569500Y-84033670D01*
X158560928Y-84078972D01*
X158494667Y-84247799D01*
X158494664Y-84247811D01*
X158434616Y-84510898D01*
X158419500Y-84712618D01*
X158419500Y-85247382D01*
X158434616Y-85449101D01*
X158494664Y-85712188D01*
X158494666Y-85712195D01*
X158556487Y-85869711D01*
X158560928Y-85881025D01*
X158569500Y-85926328D01*
X158569500Y-86185500D01*
X158549815Y-86252539D01*
X158497011Y-86298294D01*
X158445500Y-86309500D01*
X142574500Y-86309500D01*
X142507461Y-86289815D01*
X142461706Y-86237011D01*
X142450500Y-86185500D01*
X142450500Y-85487292D01*
X142450691Y-85482426D01*
X142455604Y-85420000D01*
X142435221Y-85161007D01*
X142374573Y-84908390D01*
X142275154Y-84668372D01*
X142239620Y-84610386D01*
X142139412Y-84446860D01*
X141970689Y-84249311D01*
X141923070Y-84208640D01*
X141919507Y-84205347D01*
X137176341Y-79462181D01*
X137142856Y-79400858D01*
X137147840Y-79331166D01*
X137189712Y-79275233D01*
X137255176Y-79250816D01*
X137264022Y-79250500D01*
X203647821Y-79250500D01*
X203714860Y-79270185D01*
X203735502Y-79286819D01*
X204073181Y-79624498D01*
X204106666Y-79685821D01*
X204109500Y-79712179D01*
X204109500Y-107205913D01*
X204089815Y-107272952D01*
X204082102Y-107283082D01*
X204082282Y-107283221D01*
X204079517Y-107286801D01*
X203928841Y-107514546D01*
X203812931Y-107761806D01*
X203734259Y-108023300D01*
X203734259Y-108023301D01*
X203727318Y-108070468D01*
X203694500Y-108293463D01*
X203694500Y-108293467D01*
X203694500Y-108798185D01*
X203709443Y-109002345D01*
X203709444Y-109002355D01*
X203768816Y-109268881D01*
X203768818Y-109268886D01*
X203866368Y-109523942D01*
X203985206Y-109735690D01*
X204000014Y-109762074D01*
X204000017Y-109762079D01*
X204159062Y-109968049D01*
X204166911Y-109978213D01*
X204363498Y-110167747D01*
X204585586Y-110326637D01*
X204660065Y-110364929D01*
X204828427Y-110451491D01*
X204828436Y-110451494D01*
X204828443Y-110451498D01*
X204914583Y-110480885D01*
X205086881Y-110539666D01*
X205086884Y-110539666D01*
X205086891Y-110539669D01*
X205355422Y-110589269D01*
X205519157Y-110595252D01*
X205628312Y-110599242D01*
X205628312Y-110599241D01*
X205628314Y-110599242D01*
X205899750Y-110569376D01*
X206163945Y-110500306D01*
X206415267Y-110393506D01*
X206648361Y-110251250D01*
X206746782Y-110169343D01*
X206810899Y-110141592D01*
X206879846Y-110152911D01*
X206899504Y-110165541D01*
X206899813Y-110165110D01*
X206903495Y-110167744D01*
X206903498Y-110167747D01*
X207125586Y-110326637D01*
X207259244Y-110395354D01*
X207309862Y-110443513D01*
X207326410Y-110511395D01*
X207319586Y-110546584D01*
X207314632Y-110560742D01*
X207314631Y-110560746D01*
X207294435Y-110739996D01*
X207294435Y-110740003D01*
X207314630Y-110919249D01*
X207314631Y-110919254D01*
X207374211Y-111089523D01*
X207414719Y-111153990D01*
X207470184Y-111242262D01*
X207597738Y-111369816D01*
X207750478Y-111465789D01*
X207920745Y-111525368D01*
X207920750Y-111525369D01*
X208011246Y-111535565D01*
X208055040Y-111540499D01*
X208055043Y-111540500D01*
X208055046Y-111540500D01*
X208144957Y-111540500D01*
X208144958Y-111540499D01*
X208212104Y-111532934D01*
X208279249Y-111525369D01*
X208279252Y-111525368D01*
X208279255Y-111525368D01*
X208449522Y-111465789D01*
X208602262Y-111369816D01*
X208729816Y-111242262D01*
X208825789Y-111089522D01*
X208885368Y-110919255D01*
X208894481Y-110838376D01*
X208905565Y-110740003D01*
X208905565Y-110739996D01*
X208885369Y-110560750D01*
X208885367Y-110560743D01*
X208881840Y-110550663D01*
X208878275Y-110480885D01*
X208913002Y-110420256D01*
X208950389Y-110395579D01*
X208950945Y-110395342D01*
X208955267Y-110393506D01*
X209188361Y-110251250D01*
X209398259Y-110076572D01*
X209580486Y-109873194D01*
X209731160Y-109645451D01*
X209847068Y-109398197D01*
X209925740Y-109136701D01*
X209965500Y-108866537D01*
X209965500Y-108361821D01*
X209964080Y-108342426D01*
X209960497Y-108293463D01*
X209950557Y-108157654D01*
X209924445Y-108040437D01*
X209891183Y-107891118D01*
X209891182Y-107891117D01*
X209891182Y-107891114D01*
X209793632Y-107636058D01*
X209659985Y-107397924D01*
X209599551Y-107319659D01*
X209493090Y-107181788D01*
X209493081Y-107181779D01*
X209296505Y-106992256D01*
X209296503Y-106992254D01*
X209217440Y-106935689D01*
X209074414Y-106833363D01*
X209066647Y-106829369D01*
X208831572Y-106708508D01*
X208831554Y-106708501D01*
X208573118Y-106620333D01*
X208573104Y-106620330D01*
X208304574Y-106570730D01*
X208031687Y-106560757D01*
X207760249Y-106590624D01*
X207496058Y-106659692D01*
X207244733Y-106766493D01*
X207199097Y-106794345D01*
X207131618Y-106812467D01*
X207065054Y-106791229D01*
X207020539Y-106737376D01*
X207010500Y-106688500D01*
X207010500Y-79153909D01*
X207010977Y-79146233D01*
X207014228Y-79120146D01*
X207014228Y-79120145D01*
X207010500Y-79030013D01*
X207010500Y-79000012D01*
X207008022Y-78970108D01*
X207004294Y-78879969D01*
X206998899Y-78854238D01*
X206997790Y-78846628D01*
X206997487Y-78842973D01*
X206995620Y-78820437D01*
X206973477Y-78732998D01*
X206954966Y-78644708D01*
X206954964Y-78644702D01*
X206954964Y-78644701D01*
X206945402Y-78620198D01*
X206943063Y-78612897D01*
X206936610Y-78587409D01*
X206900376Y-78504805D01*
X206867583Y-78420762D01*
X206854122Y-78398174D01*
X206850609Y-78391349D01*
X206840049Y-78367272D01*
X206790705Y-78291747D01*
X206744533Y-78214260D01*
X206727544Y-78194200D01*
X206722949Y-78188037D01*
X206718882Y-78181813D01*
X206708571Y-78166031D01*
X206647472Y-78099659D01*
X206628078Y-78076761D01*
X206628075Y-78076758D01*
X206606859Y-78055541D01*
X206545767Y-77989178D01*
X206545766Y-77989177D01*
X206545764Y-77989175D01*
X206525015Y-77973025D01*
X206519253Y-77967936D01*
X205392063Y-76840746D01*
X205386972Y-76834981D01*
X205370826Y-76814237D01*
X205370821Y-76814232D01*
X205304459Y-76753141D01*
X205283237Y-76731920D01*
X205277871Y-76727375D01*
X205260340Y-76712527D01*
X205193969Y-76651429D01*
X205193964Y-76651425D01*
X205171957Y-76637047D01*
X205165794Y-76632451D01*
X205145738Y-76615465D01*
X205068252Y-76569294D01*
X204992728Y-76519951D01*
X204992726Y-76519950D01*
X204992719Y-76519946D01*
X204977010Y-76513056D01*
X204923524Y-76468101D01*
X204902833Y-76401365D01*
X204921507Y-76334037D01*
X204973617Y-76287493D01*
X205026819Y-76275500D01*
X221400500Y-76275500D01*
X221467539Y-76295185D01*
X221513294Y-76347989D01*
X221524500Y-76399500D01*
X221524500Y-136000500D01*
X221504815Y-136067539D01*
X221452011Y-136113294D01*
X221400500Y-136124500D01*
X101799500Y-136124500D01*
X101732461Y-136104815D01*
X101686706Y-136052011D01*
X101675500Y-136000500D01*
X101675500Y-131611187D01*
X106499500Y-131611187D01*
X106510547Y-131684474D01*
X106538604Y-131870615D01*
X106538605Y-131870617D01*
X106538606Y-131870623D01*
X106615938Y-132121326D01*
X106729767Y-132357696D01*
X106729768Y-132357697D01*
X106729770Y-132357700D01*
X106729772Y-132357704D01*
X106765427Y-132410000D01*
X106877567Y-132574479D01*
X107056014Y-132766801D01*
X107056018Y-132766804D01*
X107056019Y-132766805D01*
X107261143Y-132930386D01*
X107488357Y-133061568D01*
X107732584Y-133157420D01*
X107988370Y-133215802D01*
X107988376Y-133215802D01*
X107988379Y-133215803D01*
X108184500Y-133230500D01*
X108184506Y-133230500D01*
X108315500Y-133230500D01*
X108511620Y-133215803D01*
X108511622Y-133215802D01*
X108511630Y-133215802D01*
X108767416Y-133157420D01*
X109011643Y-133061568D01*
X109238857Y-132930386D01*
X109443981Y-132766805D01*
X109622433Y-132574479D01*
X109770228Y-132357704D01*
X109884063Y-132121323D01*
X109961396Y-131870615D01*
X110000500Y-131611182D01*
X110000500Y-131348818D01*
X109961396Y-131089385D01*
X109884063Y-130838677D01*
X109848455Y-130764736D01*
X109770232Y-130602303D01*
X109770231Y-130602302D01*
X109770230Y-130602301D01*
X109770228Y-130602296D01*
X109622433Y-130385521D01*
X109612441Y-130374753D01*
X109443985Y-130193198D01*
X109366199Y-130131166D01*
X109238857Y-130029614D01*
X109011643Y-129898432D01*
X108767416Y-129802580D01*
X108767411Y-129802578D01*
X108767402Y-129802576D01*
X108549818Y-129752914D01*
X108511630Y-129744198D01*
X108511629Y-129744197D01*
X108511625Y-129744197D01*
X108511620Y-129744196D01*
X108315500Y-129729500D01*
X108315494Y-129729500D01*
X108184506Y-129729500D01*
X108184500Y-129729500D01*
X107988379Y-129744196D01*
X107988374Y-129744197D01*
X107732597Y-129802576D01*
X107732578Y-129802582D01*
X107488356Y-129898432D01*
X107261143Y-130029614D01*
X107056014Y-130193198D01*
X106877567Y-130385520D01*
X106729768Y-130602302D01*
X106729767Y-130602303D01*
X106615938Y-130838673D01*
X106538606Y-131089376D01*
X106538605Y-131089381D01*
X106538604Y-131089385D01*
X106523853Y-131187247D01*
X106499500Y-131348812D01*
X106499500Y-131611187D01*
X101675500Y-131611187D01*
X101675500Y-76399500D01*
X101695185Y-76332461D01*
X101747989Y-76286706D01*
X101799500Y-76275500D01*
X104513181Y-76275500D01*
X104580220Y-76295185D01*
G37*
%TD.AperFunction*%
%TD*%
M02*
